<svg width="32" height="32" viewBox="0 0 32 32" fill="none" xmlns="http://www.w3.org/2000/svg">
<path d="M26.2165 7.32031H5.7832C4.67863 7.32031 3.7832 8.21574 3.7832 9.32031V22.6823C3.7832 23.7869 4.67863 24.6823 5.7832 24.6823H26.2165C27.3211 24.6823 28.2165 23.7869 28.2165 22.6823V9.32031C28.2165 8.21574 27.3211 7.32031 26.2165 7.32031Z" fill="#0099FF"/>
<path d="M9.89194 16.6999C11.2038 16.6999 12.2673 15.6364 12.2673 14.3246C12.2673 13.0127 11.2038 11.9492 9.89194 11.9492C8.58007 11.9492 7.5166 13.0127 7.5166 14.3246C7.5166 15.6364 8.58007 16.6999 9.89194 16.6999Z" stroke="#F5F7FF" stroke-linecap="round" stroke-linejoin="round"/>
<path d="M19.1396 13.8984H23.8056M19.1396 18.4798H23.8056M19.1396 16.1891H25.5869M6.88556 20.7284H13.4076C13.5251 20.7288 13.6403 20.6953 13.7393 20.6321C13.8384 20.5688 13.9172 20.4784 13.9664 20.3717C14.0155 20.2649 14.033 20.1463 14.0167 20.0299C14.0003 19.9135 13.9509 19.8042 13.8742 19.7151C13.4262 19.1573 12.8587 18.7072 12.2135 18.3979C11.5684 18.0886 10.862 17.928 10.1466 17.928C9.4311 17.928 8.72476 18.0886 8.07961 18.3979C7.43446 18.7072 6.86694 19.1573 6.41889 19.7151C6.34224 19.8042 6.2928 19.9135 6.27646 20.0299C6.26012 20.1463 6.27758 20.2649 6.32675 20.3717C6.37591 20.4784 6.45472 20.5688 6.55379 20.6321C6.65286 20.6953 6.76802 20.7288 6.88556 20.7284Z" stroke="#F5F7FF" stroke-linecap="round" stroke-linejoin="round"/>
</svg>
