<svg width="19" height="14" viewBox="0 0 19 14" fill="none" xmlns="http://www.w3.org/2000/svg">
<g clip-path="url(#clip0_1350_19622)">
<path d="M3.97291 11.9499C3.90576 11.6247 3.63894 11.5381 3.33986 11.5103C2.3746 11.4211 2.20363 12.142 2.20363 12.4464C2.20363 12.9668 2.35604 13.3975 3.30319 13.3975C3.47813 13.3975 3.96054 13.2177 3.96054 12.9257H5.3234C5.26817 13.792 3.81078 13.9997 3.17508 13.9997C1.85817 13.9997 0.73034 13.7545 0.785119 12.4583C0.823994 11.5328 1.69869 10.8834 3.4397 10.9236C4.40982 10.9466 5.34239 11.2483 5.34593 11.9499H3.97291ZM17.6231 11.9499C17.5564 11.6247 17.2891 11.5381 16.9905 11.5103C16.0252 11.4211 15.8542 12.142 15.8542 12.4464C15.8542 12.9668 16.0062 13.3975 16.9542 13.3975C17.1292 13.3975 17.6112 13.2177 17.6112 12.9257H18.974C18.9188 13.792 17.4618 13.9997 16.8257 13.9997C15.5088 13.9997 14.3814 13.7545 14.4357 12.4583C14.4746 11.5328 15.3497 10.8834 17.0908 10.9236C18.0609 10.9466 18.993 11.2483 18.997 11.9499H17.6231ZM5.58978 10.9859H7.35906L8.86858 13.1007H8.88051V10.9859H10.0145V13.9224H8.31946L6.73573 11.8072H6.7238V13.9224H5.58978V10.9859ZM10.3648 10.9859H12.5136C13.5465 10.9859 14.1539 11.274 14.1539 11.7095C14.1539 11.9667 13.8994 12.2843 13.3326 12.3779V12.3863C14.0152 12.427 14.267 12.8581 14.267 13.1166C14.267 13.6343 13.675 13.9224 12.5198 13.9224H10.3648V10.9859ZM11.6084 12.1266H11.9649C12.5136 12.1266 12.8047 12.0837 12.8047 11.8562C12.8047 11.6119 12.5622 11.5311 12.0683 11.5311H11.608L11.6084 12.1266ZM11.6084 13.3065H11.9649C12.6263 13.3065 12.8688 13.2372 12.8688 13.0097C12.8688 12.7654 12.5626 12.6841 12.0687 12.6841H11.6084V13.3065Z" fill="black"/>
<path d="M6.31669 4.10053L8.78484 9.74455L3.69303 6.25812C2.41544 5.41258 2.67431 3.9627 3.38247 3.3239C4.38351 2.47836 5.79894 2.77169 6.31669 4.10053Z" fill="#D9782D"/>
<path d="M9.69977 2.77558L8.80254 9.09241L6.24824 3.08658C5.69603 1.58501 6.93828 0.601197 7.76704 0.583968C8.7164 0.480153 9.90696 1.20509 9.69977 2.77558Z" fill="#B01842"/>
<path d="M13.5834 3.0668L11.0464 9.0903L10.2353 3.65346C10.1659 2.82515 10.6841 2.80792 10.8741 2.65242C10.8396 2.53138 10.5807 2.53138 10.5807 2.53138H10.0975C10.0458 1.11595 11.1502 0.494827 12.0479 0.563743C13.014 0.598643 14.1012 1.72029 13.5834 3.0668Z" fill="#543B92"/>
<path d="M16.1714 6.22812L11.0801 9.73222L13.4789 4.15711C14.2038 2.39667 15.8953 2.74169 16.4992 3.41494C17.1548 4.07052 17.3448 5.3998 16.1714 6.22812Z" fill="#397DB7"/>
<path d="M16.7055 10.3527H10.8203L15.6011 7.02134C16.7749 6.24471 18.0176 6.95242 18.3454 7.9707C18.6908 9.11001 17.9138 10.3527 16.7055 10.3527Z" fill="#6CB35D"/>
<path d="M1.46558 7.89943C1.91442 6.72566 3.15711 6.31128 4.26153 7.01899L9.04278 10.3504H3.24325C2.03502 10.3504 1.0861 9.2455 1.46558 7.89943Z" fill="#ECB73B"/>
</g>
<defs>
<clipPath id="clip0_1350_19622">
<rect width="18.2179" height="13.7655" fill="white" transform="translate(0.78125 0.234375)"/>
</clipPath>
</defs>
</svg>
