<svg width="132" height="154" viewBox="0 0 132 154" fill="none" xmlns="http://www.w3.org/2000/svg">
<circle cx="66" cy="66" r="65.2" stroke="#2B49C1" stroke-width="1.6"/>
<path d="M66.0003 147.335C73.3641 147.335 79.3337 141.365 79.3337 134.001C79.3337 126.638 73.3641 120.668 66.0003 120.668C58.6365 120.668 52.667 126.638 52.667 134.001C52.667 141.365 58.6365 147.335 66.0003 147.335Z" fill="#24A148"/>
<path d="M59.75 135.591L62.3557 138.614C62.5688 138.861 62.8578 139 63.1591 139C63.4604 139 63.7494 138.861 63.9625 138.614L72.25 129" stroke="#F0FFF4" stroke-width="1.6" stroke-linecap="round"/>
<path d="M88.272 37.1285C87.9653 37.1285 87.6587 37.0518 87.3903 36.8985C80.0303 33.1035 73.667 31.4935 66.0387 31.4935C58.4487 31.4935 51.242 33.2952 44.687 36.8985C43.767 37.3968 42.617 37.0518 42.0803 36.1318C41.8413 35.6835 41.7876 35.1593 41.931 34.6718C42.0744 34.1844 42.4033 33.7727 42.847 33.5252C49.977 29.6535 57.797 27.6602 66.0387 27.6602C74.2037 27.6602 81.3337 29.4618 89.1537 33.4868C90.112 33.9852 90.457 35.1352 89.9587 36.0552C89.8071 36.3747 89.5684 36.645 89.27 36.8349C88.9716 37.0247 88.6257 37.1265 88.272 37.1285ZM33.417 57.2535C33.0636 57.2568 32.7163 57.1621 32.4134 56.98C32.1106 56.7979 31.8641 56.5355 31.7014 56.2219C31.5386 55.9082 31.4659 55.5556 31.4913 55.2032C31.5167 54.8507 31.6392 54.5122 31.8453 54.2252C35.6403 48.8585 40.4703 44.6418 46.2203 41.6902C58.257 35.4802 73.667 35.4418 85.742 41.6518C91.492 44.6035 96.322 48.7818 100.117 54.1102C100.264 54.3162 100.369 54.5493 100.425 54.796C100.482 55.0427 100.489 55.2982 100.446 55.5477C100.403 55.7972 100.312 56.0357 100.176 56.2495C100.041 56.4634 99.8643 56.6482 99.657 56.7935C98.7753 57.4068 97.587 57.2152 96.9737 56.3335C93.6167 51.5816 89.1576 47.7145 83.9787 45.0635C72.977 39.4285 58.9087 39.4285 47.9453 45.1018C42.732 47.7852 38.362 51.6185 34.912 56.4485C34.6053 56.9852 34.0303 57.2535 33.417 57.2535ZM57.3753 103.522C57.124 103.525 56.8747 103.475 56.6437 103.376C56.4126 103.277 56.2048 103.131 56.0337 102.947C52.6987 99.6118 50.897 97.4652 48.3287 92.8268C45.6837 88.1118 44.3037 82.3618 44.3037 76.1902C44.3037 64.8052 54.0403 55.5285 66.0003 55.5285C77.9603 55.5285 87.697 64.8052 87.697 76.1902C87.697 77.2635 86.8537 78.1068 85.7803 78.1068C84.707 78.1068 83.8637 77.2635 83.8637 76.1902C83.8637 66.9135 75.852 59.3618 66.0003 59.3618C56.1487 59.3618 48.137 66.9135 48.137 76.1902C48.137 81.7102 49.3637 86.8085 51.702 90.9485C54.1553 95.3568 55.842 97.2352 58.7937 100.225C59.522 100.992 59.522 102.18 58.7937 102.947C58.372 103.33 57.8737 103.522 57.3753 103.522ZM84.8603 96.4302C80.2987 96.4302 76.2737 95.2802 72.977 93.0185C67.2653 89.1468 63.8537 82.8602 63.8537 76.1902C63.8537 75.1168 64.697 74.2735 65.7703 74.2735C66.8437 74.2735 67.687 75.1168 67.687 76.1902C67.687 81.5952 70.447 86.6935 75.1237 89.8368C77.8453 91.6768 81.027 92.5585 84.8603 92.5585C85.7803 92.5585 87.3137 92.4435 88.847 92.1752C89.882 91.9835 90.8787 92.6735 91.0703 93.7468C91.262 94.7818 90.572 95.7785 89.4987 95.9702C87.3137 96.3918 85.397 96.4302 84.8603 96.4302ZM77.1553 104.327C77.002 104.327 76.8103 104.288 76.657 104.25C70.562 102.563 66.5753 100.302 62.397 96.2001C59.7492 93.5857 57.6497 90.4693 56.2214 87.0334C54.793 83.5975 54.0646 79.9111 54.0787 76.1902C54.0787 69.9802 59.3687 64.9202 65.8853 64.9202C72.402 64.9202 77.692 69.9802 77.692 76.1902C77.692 80.2918 81.257 83.6268 85.6653 83.6268C90.0737 83.6268 93.6387 80.2918 93.6387 76.1902C93.6387 61.7385 81.1803 50.0085 65.847 50.0085C54.9603 50.0085 44.9937 56.0652 40.5087 65.4568C39.0137 68.5618 38.247 72.2035 38.247 76.1902C38.247 79.1802 38.5153 83.8952 40.8153 90.0285C41.1987 91.0252 40.7003 92.1368 39.7037 92.4818C38.707 92.8652 37.5953 92.3285 37.2503 91.3702C35.4032 86.5222 34.4549 81.3781 34.452 76.1902C34.452 71.5902 35.3337 67.4118 37.0587 63.7702C42.157 53.0752 53.4653 46.1368 65.847 46.1368C83.2887 46.1368 97.472 59.5918 97.472 76.1518C97.472 82.3618 92.182 87.4218 85.6653 87.4218C79.1487 87.4218 73.8587 82.3618 73.8587 76.1518C73.8587 72.0502 70.2937 68.7152 65.8853 68.7152C61.477 68.7152 57.912 72.0502 57.912 76.1518C57.912 82.7068 60.442 88.8402 65.0803 93.4402C68.722 97.0435 72.2103 99.0368 77.6153 100.532C78.6503 100.8 79.2253 101.873 78.957 102.87C78.7653 103.752 77.9603 104.327 77.1553 104.327Z" fill="#2B49C1"/>
</svg>
