<svg width="92" height="92" viewBox="0 0 92 92" fill="none" xmlns="http://www.w3.org/2000/svg">
<path d="M68.272 17.1285C67.9653 17.1285 67.6587 17.0518 67.3903 16.8985C60.0303 13.1035 53.667 11.4935 46.0387 11.4935C38.4487 11.4935 31.242 13.2952 24.687 16.8985C23.767 17.3968 22.617 17.0518 22.0803 16.1318C21.8413 15.6835 21.7876 15.1593 21.931 14.6718C22.0744 14.1844 22.4033 13.7727 22.847 13.5252C29.977 9.65349 37.797 7.66016 46.0387 7.66016C54.2037 7.66016 61.3337 9.46182 69.1537 13.4868C70.112 13.9852 70.457 15.1352 69.9587 16.0552C69.8071 16.3747 69.5684 16.645 69.27 16.8349C68.9716 17.0247 68.6257 17.1265 68.272 17.1285ZM13.417 37.2535C13.0636 37.2568 12.7163 37.1621 12.4134 36.98C12.1106 36.7979 11.8641 36.5355 11.7014 36.2219C11.5386 35.9082 11.4659 35.5556 11.4913 35.2032C11.5167 34.8507 11.6392 34.5122 11.8453 34.2252C15.6403 28.8585 20.4703 24.6418 26.2203 21.6902C38.257 15.4802 53.667 15.4418 65.742 21.6518C71.492 24.6035 76.322 28.7818 80.117 34.1102C80.2641 34.3162 80.3689 34.5493 80.4254 34.796C80.4819 35.0427 80.489 35.2982 80.4462 35.5477C80.4034 35.7972 80.3117 36.0357 80.1762 36.2495C80.0408 36.4634 79.8643 36.6482 79.657 36.7935C78.7753 37.4068 77.587 37.2152 76.9737 36.3335C73.6167 31.5816 69.1576 27.7145 63.9787 25.0635C52.977 19.4285 38.9087 19.4285 27.9453 25.1018C22.732 27.7852 18.362 31.6185 14.912 36.4485C14.6053 36.9852 14.0303 37.2535 13.417 37.2535ZM37.3753 83.5218C37.124 83.5249 36.8747 83.4753 36.6437 83.3763C36.4126 83.2773 36.2048 83.131 36.0337 82.9468C32.6987 79.6118 30.897 77.4652 28.3287 72.8268C25.6837 68.1118 24.3037 62.3618 24.3037 56.1902C24.3037 44.8052 34.0403 35.5285 46.0003 35.5285C57.9603 35.5285 67.697 44.8052 67.697 56.1902C67.697 57.2635 66.8537 58.1068 65.7803 58.1068C64.707 58.1068 63.8637 57.2635 63.8637 56.1902C63.8637 46.9135 55.852 39.3618 46.0003 39.3618C36.1487 39.3618 28.137 46.9135 28.137 56.1902C28.137 61.7102 29.3637 66.8085 31.702 70.9485C34.1553 75.3568 35.842 77.2352 38.7937 80.2252C39.522 80.9918 39.522 82.1802 38.7937 82.9468C38.372 83.3302 37.8737 83.5218 37.3753 83.5218ZM64.8603 76.4302C60.2987 76.4302 56.2737 75.2802 52.977 73.0185C47.2653 69.1468 43.8537 62.8602 43.8537 56.1902C43.8537 55.1168 44.697 54.2735 45.7703 54.2735C46.8437 54.2735 47.687 55.1168 47.687 56.1902C47.687 61.5952 50.447 66.6935 55.1237 69.8368C57.8453 71.6768 61.027 72.5585 64.8603 72.5585C65.7803 72.5585 67.3137 72.4435 68.847 72.1752C69.882 71.9835 70.8787 72.6735 71.0703 73.7468C71.262 74.7818 70.572 75.7785 69.4987 75.9702C67.3137 76.3918 65.397 76.4302 64.8603 76.4302ZM57.1553 84.3268C57.002 84.3268 56.8103 84.2885 56.657 84.2502C50.562 82.5635 46.5753 80.3018 42.397 76.2001C39.7492 73.5857 37.6497 70.4693 36.2214 67.0334C34.793 63.5975 34.0646 59.9111 34.0787 56.1902C34.0787 49.9802 39.3687 44.9202 45.8853 44.9202C52.402 44.9202 57.692 49.9802 57.692 56.1902C57.692 60.2918 61.257 63.6268 65.6653 63.6268C70.0737 63.6268 73.6387 60.2918 73.6387 56.1902C73.6387 41.7385 61.1803 30.0085 45.847 30.0085C34.9603 30.0085 24.9937 36.0652 20.5087 45.4568C19.0137 48.5618 18.247 52.2035 18.247 56.1902C18.247 59.1802 18.5153 63.8952 20.8153 70.0285C21.1987 71.0252 20.7003 72.1368 19.7037 72.4818C18.707 72.8652 17.5953 72.3285 17.2503 71.3702C15.4032 66.5222 14.4549 61.3781 14.452 56.1902C14.452 51.5902 15.3337 47.4118 17.0587 43.7702C22.157 33.0752 33.4653 26.1368 45.847 26.1368C63.2887 26.1368 77.472 39.5918 77.472 56.1518C77.472 62.3618 72.182 67.4218 65.6653 67.4218C59.1487 67.4218 53.8587 62.3618 53.8587 56.1518C53.8587 52.0502 50.2937 48.7152 45.8853 48.7152C41.477 48.7152 37.912 52.0502 37.912 56.1518C37.912 62.7068 40.442 68.8402 45.0803 73.4402C48.722 77.0435 52.2103 79.0368 57.6153 80.5318C58.6503 80.8002 59.2253 81.8735 58.957 82.8702C58.7653 83.7518 57.9603 84.3268 57.1553 84.3268Z" fill="#B8BFD9"/>
</svg>
