<svg width="14" height="15" viewBox="0 0 14 15" fill="none" xmlns="http://www.w3.org/2000/svg">
<path d="M9 2.49262C9 1.66874 8.32843 1.00086 7.5 1.00086C6.67157 1.00086 6 1.66874 6 2.49262C6 3.31649 6.67157 3.98438 7.5 3.98438C8.32843 3.98438 9 3.31649 9 2.49262Z" stroke="#000E46" stroke-linecap="round" stroke-linejoin="round"/>
<path d="M9 7.46527C9 6.6414 8.32843 5.97351 7.5 5.97351C6.67157 5.97351 6 6.6414 6 7.46527C6 8.28915 6.67157 8.95703 7.5 8.95703C8.32843 8.95703 9 8.28915 9 7.46527Z" stroke="#000E46" stroke-linecap="round" stroke-linejoin="round"/>
<path d="M9 12.4379C9 11.6141 8.32843 10.9462 7.5 10.9462C6.67157 10.9462 6 11.6141 6 12.4379C6 13.2618 6.67157 13.9297 7.5 13.9297C8.32843 13.9297 9 13.2618 9 12.4379Z" stroke="#000E46" stroke-linecap="round" stroke-linejoin="round"/>
</svg>
