<svg width="24" height="24" viewBox="0 0 24 24" fill="none" xmlns="http://www.w3.org/2000/svg">
<g clip-path="url(#clip0_1104_9103)">
<path d="M20.5717 12.8577V9.42913C20.5717 8.97447 20.3911 8.53844 20.0696 8.21695C19.7481 7.89546 19.3121 7.71484 18.8574 7.71484H2.57171C2.11705 7.71484 1.68102 7.89546 1.35952 8.21695C1.03803 8.53844 0.857422 8.97447 0.857422 9.42913V21.4291C0.857422 21.8838 1.03803 22.3198 1.35952 22.6413C1.68102 22.9628 2.11705 23.1434 2.57171 23.1434H18.8574C19.3121 23.1434 19.7481 22.9628 20.0696 22.6413C20.3911 22.3198 20.5717 21.8838 20.5717 21.4291V17.1434" stroke="white" stroke-linecap="round" stroke-linejoin="round"/>
<path d="M6.58398 3.428L16.304 0.890855C16.4132 0.86008 16.5275 0.851756 16.6401 0.866383C16.7526 0.88101 16.861 0.918286 16.9587 0.975961C17.0564 1.03364 17.1415 1.11051 17.2087 1.20196C17.2759 1.2934 17.3238 1.39751 17.3497 1.508L17.8297 3.428" stroke="white" stroke-linecap="round" stroke-linejoin="round"/>
<path d="M22.2854 12.8555H17.9997C17.5263 12.8555 17.1426 13.2392 17.1426 13.7126V16.284C17.1426 16.7574 17.5263 17.1412 17.9997 17.1412H22.2854C22.7588 17.1412 23.1426 16.7574 23.1426 16.284V13.7126C23.1426 13.2392 22.7588 12.8555 22.2854 12.8555Z" stroke="white" stroke-linecap="round" stroke-linejoin="round"/>
</g>
<defs>
<clipPath id="clip0_1104_9103">
<rect width="24" height="24" fill="white"/>
</clipPath>
</defs>
</svg>
