<svg width="20" height="8" viewBox="0 0 20 8" fill="none" xmlns="http://www.w3.org/2000/svg">
<path fill-rule="evenodd" clip-rule="evenodd" d="M9.3415 2.69C9.3572 2.52675 9.35283 2.36219 9.3285 2.2H10.6715C10.6472 2.36219 10.6428 2.52675 10.6585 2.69L10.9445 5.69C10.9918 6.18521 11.2219 6.64504 11.5899 6.97972C11.958 7.31439 12.4375 7.49989 12.935 7.5H17C17.5304 7.5 18.0391 7.28929 18.4142 6.91422C18.7893 6.53914 19 6.03044 19 5.5V3H19.5V0.500003H12.65C12.038 0.500003 11.495 0.773003 11.13 1.2H8.87C8.68253 0.98011 8.44949 0.803612 8.18703 0.682741C7.92457 0.561869 7.63896 0.499516 7.35 0.500003H0.5V3H1V5.5C1 6.03044 1.21071 6.53914 1.58579 6.91422C1.96086 7.28929 2.46957 7.5 3 7.5H7.065C7.56246 7.49989 8.04203 7.31439 8.41008 6.97972C8.77813 6.64504 9.00824 6.18521 9.0555 5.69L9.3415 2.69ZM3 1.5C2.73478 1.5 2.48043 1.60536 2.29289 1.7929C2.10536 1.98043 2 2.23479 2 2.5V5.5C2 5.76522 2.10536 6.01957 2.29289 6.20711C2.48043 6.39465 2.73478 6.5 3 6.5H7.065C7.31369 6.49989 7.55341 6.40711 7.73738 6.23978C7.92135 6.07244 8.03638 5.84257 8.06 5.595L8.346 2.595C8.35924 2.45626 8.34333 2.31628 8.29929 2.18404C8.25526 2.0518 8.18406 1.93023 8.09028 1.82713C7.9965 1.72402 7.8822 1.64166 7.75471 1.58533C7.62723 1.52899 7.48938 1.49993 7.35 1.5H3ZM11.654 2.595C11.6408 2.45626 11.6567 2.31628 11.7007 2.18404C11.7447 2.0518 11.8159 1.93023 11.9097 1.82713C12.0035 1.72402 12.1178 1.64166 12.2453 1.58533C12.3728 1.52899 12.5106 1.49993 12.65 1.5H17C17.2652 1.5 17.5196 1.60536 17.7071 1.7929C17.8946 1.98043 18 2.23479 18 2.5V5.5C18 5.76522 17.8946 6.01957 17.7071 6.20711C17.5196 6.39465 17.2652 6.5 17 6.5H12.935C12.6863 6.49989 12.4466 6.40711 12.2626 6.23978C12.0786 6.07244 11.9636 5.84257 11.94 5.595L11.654 2.595Z" fill="#2B49C1"/>
</svg>
