<svg width="16" height="16" viewBox="0 0 16 16" fill="none" xmlns="http://www.w3.org/2000/svg">
<path d="M5.71596 6.8577C7.13612 6.8577 8.28739 5.70643 8.28739 4.28627C8.28739 2.86611 7.13612 1.71484 5.71596 1.71484C4.2958 1.71484 3.14453 2.86611 3.14453 4.28627C3.14453 5.70643 4.2958 6.8577 5.71596 6.8577Z" stroke="#000E46" stroke-linecap="round" stroke-linejoin="round"/>
<path d="M10.858 15.4302H0.572266V14.2874C0.572266 12.9234 1.1141 11.6153 2.07857 10.6508C3.04305 9.68637 4.35115 9.14453 5.71512 9.14453C7.07909 9.14453 8.3872 9.68637 9.35167 10.6508C10.3161 11.6153 10.858 12.9234 10.858 14.2874V15.4302Z" stroke="#000E46" stroke-linecap="round" stroke-linejoin="round"/>
<path d="M10.2871 1.71484C10.9691 1.71484 11.6231 1.98576 12.1054 2.468C12.5876 2.95023 12.8585 3.60429 12.8585 4.28627C12.8585 4.96826 12.5876 5.62231 12.1054 6.10455C11.6231 6.58678 10.9691 6.8577 10.2871 6.8577" stroke="#000E46" stroke-linecap="round" stroke-linejoin="round"/>
<path d="M12.1152 9.35938C13.0888 9.72972 13.9269 10.3869 14.5187 11.2441C15.1105 12.1012 15.4281 13.1178 15.4295 14.1594V15.4279H13.7152" stroke="#000E46" stroke-linecap="round" stroke-linejoin="round"/>
</svg>
