<svg width="16" height="17" viewBox="0 0 16 17" fill="none" xmlns="http://www.w3.org/2000/svg">
<g clip-path="url(#clip0_1236_11314)">
<path d="M5.97733 3.07031L6.46876 1.80174C6.55164 1.58696 6.69745 1.40221 6.8871 1.2717C7.07675 1.14119 7.3014 1.07099 7.53162 1.07031H8.46876C8.69898 1.07099 8.92362 1.14119 9.11327 1.2717C9.30292 1.40221 9.44874 1.58696 9.53162 1.80174L10.023 3.07031L11.6916 4.03031L13.0402 3.8246C13.2647 3.79412 13.4933 3.83108 13.6968 3.9308C13.9003 4.03051 14.0695 4.18847 14.183 4.3846L14.6402 5.1846C14.7573 5.38385 14.8113 5.61395 14.795 5.84451C14.7787 6.07507 14.6928 6.29526 14.5488 6.47603L13.7145 7.53888V9.45888L14.5716 10.5217C14.7157 10.7025 14.8015 10.9227 14.8178 11.1533C14.8342 11.3838 14.7802 11.6139 14.663 11.8132L14.2059 12.6132C14.0924 12.8093 13.9231 12.9673 13.7196 13.067C13.5161 13.1667 13.2876 13.2036 13.063 13.1732L11.7145 12.9675L10.0459 13.9275L9.55447 15.196C9.47159 15.4108 9.32578 15.5956 9.13613 15.7261C8.94648 15.8566 8.72183 15.9268 8.49162 15.9275H7.53162C7.3014 15.9268 7.07675 15.8566 6.8871 15.7261C6.69745 15.5956 6.55164 15.4108 6.46876 15.196L5.97733 13.9275L4.30876 12.9675L2.96019 13.1732C2.73564 13.2036 2.50709 13.1667 2.3036 13.067C2.1001 12.9673 1.93084 12.8093 1.81733 12.6132L1.36019 11.8132C1.24305 11.6139 1.18908 11.3838 1.2054 11.1533C1.22172 10.9227 1.30757 10.7025 1.45162 10.5217L2.2859 9.45888V7.53888L1.42876 6.47603C1.28471 6.29526 1.19886 6.07507 1.18254 5.84451C1.16622 5.61395 1.22019 5.38385 1.33733 5.1846L1.79447 4.3846C1.90799 4.18847 2.07724 4.03051 2.28074 3.9308C2.48423 3.83108 2.71278 3.79412 2.93733 3.8246L4.2859 4.03031L5.97733 3.07031ZM5.71447 8.49888C5.71447 8.95096 5.84853 9.39287 6.09969 9.76876C6.35084 10.1446 6.70782 10.4376 7.12548 10.6106C7.54314 10.7836 8.00272 10.8289 8.44611 10.7407C8.88949 10.6525 9.29677 10.4348 9.61643 10.1151C9.93609 9.79546 10.1538 9.38819 10.242 8.9448C10.3302 8.50142 10.2849 8.04184 10.1119 7.62418C9.93891 7.20652 9.64595 6.84954 9.27006 6.59838C8.89418 6.34722 8.45226 6.21317 8.00019 6.21317C7.39398 6.21317 6.8126 6.45398 6.38394 6.88264C5.95529 7.31129 5.71447 7.89267 5.71447 8.49888V8.49888Z" stroke="#000E46" stroke-linecap="round" stroke-linejoin="round"/>
</g>
<defs>
<clipPath id="clip0_1236_11314">
<rect width="16" height="16" fill="white" transform="translate(0 0.5)"/>
</clipPath>
</defs>
</svg>
