<svg width="16" height="14" viewBox="0 0 16 14" fill="none" xmlns="http://www.w3.org/2000/svg">
<path d="M15.4294 4.71373C15.4294 4.41062 15.309 4.11993 15.0947 3.90561C14.8803 3.69128 14.5897 3.57087 14.2866 3.57087H12.0008L10.2866 1.28516H5.71512L4.00084 3.57087H1.71512C1.41202 3.57087 1.12133 3.69128 0.907001 3.90561C0.692673 4.11993 0.572266 4.41062 0.572266 4.71373V11.5709C0.572266 11.874 0.692673 12.1647 0.907001 12.379C1.12133 12.5933 1.41202 12.7137 1.71512 12.7137H14.2866C14.5897 12.7137 14.8803 12.5933 15.0947 12.379C15.309 12.1647 15.4294 11.874 15.4294 11.5709V4.71373Z" stroke="white" stroke-linecap="round" stroke-linejoin="round"/>
<path d="M8.00112 10.1429C9.42128 10.1429 10.5725 8.99159 10.5725 7.57143C10.5725 6.15127 9.42128 5 8.00112 5C6.58096 5 5.42969 6.15127 5.42969 7.57143C5.42969 8.99159 6.58096 10.1429 8.00112 10.1429Z" stroke="white" stroke-linecap="round" stroke-linejoin="round"/>
</svg>
