<svg width="16" height="17" viewBox="0 0 16 17" fill="none" xmlns="http://www.w3.org/2000/svg">
<path d="M9.71449 11.6989C9.35245 11.8501 8.96397 11.9278 8.57164 11.9275C7.70045 11.8889 6.88018 11.5062 6.29092 10.8633C5.70167 10.2205 5.39159 9.37013 5.42878 8.49888C5.39159 7.62764 5.70167 6.77725 6.29092 6.13442C6.88018 5.49159 7.70045 5.10888 8.57164 5.07031C8.88972 5.0723 9.20568 5.12239 9.50878 5.21888" stroke="#000E46" stroke-linecap="round" stroke-linejoin="round"/>
<path d="M4 7.35547H7.42857" stroke="#000E46" stroke-linecap="round" stroke-linejoin="round"/>
<path d="M4 9.64062H7.42857" stroke="#000E46" stroke-linecap="round" stroke-linejoin="round"/>
<path d="M8.00084 15.9275C12.1035 15.9275 15.4294 12.6016 15.4294 8.49888C15.4294 4.3962 12.1035 1.07031 8.00084 1.07031C3.89815 1.07031 0.572266 4.3962 0.572266 8.49888C0.572266 12.6016 3.89815 15.9275 8.00084 15.9275Z" stroke="#000E46" stroke-linecap="round" stroke-linejoin="round"/>
</svg>
