<svg width="25" height="25" viewBox="0 0 25 25" fill="none" xmlns="http://www.w3.org/2000/svg">
<path d="M12.4531 16.2332L8.91512 12.6943L9.62212 11.9753L11.9531 14.3062V5.65625H12.9531V14.3062L15.2831 11.9762L15.9911 12.6943L12.4531 16.2332ZM7.06812 19.6562C6.60812 19.6562 6.22412 19.5022 5.91612 19.1943C5.60746 18.8856 5.45312 18.5013 5.45312 18.0413V15.6182H6.45312V18.0413C6.45312 18.1946 6.51712 18.3356 6.64512 18.4643C6.77379 18.5923 6.91479 18.6562 7.06812 18.6562H17.8381C17.9915 18.6562 18.1325 18.5923 18.2611 18.4643C18.3891 18.3356 18.4531 18.1946 18.4531 18.0413V15.6182H19.4531V18.0413C19.4531 18.5013 19.2991 18.8853 18.9911 19.1933C18.6825 19.5019 18.2981 19.6562 17.8381 19.6562H7.06812Z" fill="#000E46"/>
</svg>
