<svg width="22" height="22" viewBox="0 0 22 22" fill="none" xmlns="http://www.w3.org/2000/svg">
<path d="M2.83783 4.95892V4.51172C2.71922 4.51172 2.60547 4.55883 2.52161 4.6427C2.43774 4.72657 2.39062 4.84032 2.39062 4.95892H2.83783ZM18.9372 4.95892H19.3844C19.3844 4.84032 19.3372 4.72657 19.2534 4.6427C19.1695 4.55883 19.0558 4.51172 18.9372 4.51172V4.95892ZM2.83783 5.40613H18.9372V4.51172H2.83783V5.40613ZM18.49 4.95892V15.6918H19.3844V4.95892H18.49ZM17.1483 17.0334H4.62664V17.9278H17.1483V17.0334ZM3.28503 15.6918V4.95892H2.39062V15.6918H3.28503ZM4.62664 17.0334C4.27083 17.0334 3.92958 16.8921 3.67798 16.6405C3.42638 16.3889 3.28503 16.0476 3.28503 15.6918H2.39062C2.39062 16.2848 2.6262 16.8536 3.04554 17.2729C3.46487 17.6922 4.03361 17.9278 4.62664 17.9278V17.0334ZM18.49 15.6918C18.49 16.0476 18.3486 16.3889 18.097 16.6405C17.8454 16.8921 17.5042 17.0334 17.1483 17.0334V17.9278C17.7414 17.9278 18.3101 17.6922 18.7294 17.2729C19.1488 16.8536 19.3844 16.2848 19.3844 15.6918H18.49Z" fill="#F5F7FF"/>
<path d="M2.83594 4.95703L10.8856 13.0067L18.9353 4.95703" stroke="#F5F7FF" stroke-width="0.894407" stroke-linecap="round" stroke-linejoin="round"/>
</svg>
