<svg width="22" height="23" viewBox="0 0 22 23" fill="none" xmlns="http://www.w3.org/2000/svg">
<path d="M10.9409 15.0695L7.7151 11.8427L8.35972 11.1872L10.485 13.3125V5.42578H11.3968V13.3125L13.5212 11.1881L14.1667 11.8427L10.9409 15.0695ZM6.03108 18.1904C5.61167 18.1904 5.26156 18.05 4.98074 17.7692C4.69931 17.4877 4.55859 17.1373 4.55859 16.7179V14.5087H5.47035V16.7179C5.47035 16.8577 5.5287 16.9863 5.64541 17.1036C5.76272 17.2203 5.89128 17.2786 6.03108 17.2786H15.8507C15.9905 17.2786 16.1191 17.2203 16.2364 17.1036C16.3531 16.9863 16.4115 16.8577 16.4115 16.7179V14.5087H17.3232V16.7179C17.3232 17.1373 17.1828 17.4874 16.902 17.7683C16.6206 18.0497 16.2701 18.1904 15.8507 18.1904H6.03108Z" fill="#8D95B7"/>
</svg>
