<svg width="34" height="22" viewBox="0 0 34 22" fill="none" xmlns="http://www.w3.org/2000/svg">
<path d="M28.0839 10.9241C28.0839 14.6717 25.052 17.7036 21.3044 17.7036C19.7225 17.7036 18.2724 17.1575 17.1237 16.2536C18.7056 15.0107 19.7037 13.0898 19.7037 10.9241C19.7037 8.7584 18.6867 6.83752 17.1237 5.59461C18.2724 4.69066 19.7225 4.14453 21.3044 4.14453C25.052 4.14453 28.0839 7.19533 28.0839 10.9241Z" fill="#F79E1B"/>
<path d="M17.1237 5.59461C17.1237 5.59461 17.1237 5.5946 17.1237 5.59461C18.6867 6.83752 19.7037 8.7584 19.7037 10.9241C19.7037 13.0898 18.7056 15.0107 17.1237 16.2536L17.1048 16.2536C15.5417 15.0295 14.5248 13.0898 14.5248 10.9241C14.5248 8.75843 15.5417 6.83756 17.1048 5.59464C17.1048 5.59463 17.1048 5.59466 17.1048 5.59464L17.1237 5.59461Z" fill="#FF5F00"/>
<path d="M14.5248 10.9241C14.5248 8.75843 15.5417 6.83756 17.1048 5.59464C15.956 4.6907 14.506 4.14456 12.9241 4.14456C9.1765 4.14456 6.14453 7.17653 6.14453 10.9241C6.14453 14.6717 9.1765 17.7037 12.9241 17.7037C14.506 17.7037 15.956 17.1575 17.1048 16.2536C15.5417 15.0295 14.5248 13.0898 14.5248 10.9241Z" fill="#EB001B"/>
</svg>
