<svg width="21" height="20" viewBox="0 0 21 20" fill="none" xmlns="http://www.w3.org/2000/svg">
<path d="M6.29883 3.1263C6.29883 2.3213 6.95216 1.66797 7.75716 1.66797H17.3205C18.1255 1.66797 18.7788 2.3213 18.7788 3.1263V12.708C18.7788 13.0947 18.6252 13.4657 18.3517 13.7392C18.0782 14.0127 17.7073 14.1663 17.3205 14.1663H7.75716C7.37039 14.1663 6.99945 14.0127 6.72596 13.7392C6.45247 13.4657 6.29883 13.0947 6.29883 12.708V3.1263ZM7.75716 2.91797C7.70191 2.91797 7.64892 2.93992 7.60985 2.97899C7.57078 3.01806 7.54883 3.07105 7.54883 3.1263V12.708C7.54883 12.8238 7.64216 12.9163 7.75716 12.9163H17.3205C17.3757 12.9163 17.4287 12.8944 17.4678 12.8553C17.5069 12.8162 17.5288 12.7632 17.5288 12.708V3.1263C17.5288 3.07105 17.5069 3.01806 17.4678 2.97899C17.4287 2.93992 17.3757 2.91797 17.3205 2.91797H7.75716Z" fill="white"/>
<path d="M2.10742 8.95917C2.10731 8.76758 2.14495 8.57786 2.21819 8.40083C2.29143 8.2238 2.39883 8.06294 2.53426 7.92743C2.66969 7.79192 2.8305 7.68443 3.00748 7.61109C3.18447 7.53775 3.37417 7.5 3.56576 7.5H4.81992C4.98568 7.5 5.14465 7.56585 5.26186 7.68306C5.37907 7.80027 5.44492 7.95924 5.44492 8.125C5.44492 8.29076 5.37907 8.44973 5.26186 8.56694C5.14465 8.68415 4.98568 8.75 4.81992 8.75H3.56576C3.5105 8.75 3.45751 8.77195 3.41844 8.81102C3.37937 8.85009 3.35742 8.90308 3.35742 8.95833L3.36159 16.8767C3.36159 16.9917 3.45409 17.085 3.56992 17.085H11.4866C11.5418 17.085 11.5948 17.063 11.6339 17.024C11.673 16.9849 11.6949 16.9319 11.6949 16.8767V15.6183C11.6949 15.4526 11.7608 15.2936 11.878 15.1764C11.9952 15.0592 12.1542 14.9933 12.3199 14.9933C12.4857 14.9933 12.6447 15.0592 12.7619 15.1764C12.8791 15.2936 12.9449 15.4526 12.9449 15.6183V16.8767C12.9449 17.2634 12.7913 17.6344 12.5178 17.9079C12.2443 18.1814 11.8734 18.335 11.4866 18.335H3.56992C3.18315 18.335 2.81222 18.1814 2.53872 17.9079C2.26523 17.6344 2.11159 17.2634 2.11159 16.8767L2.10742 8.95917Z" fill="white"/>
</svg>
