<svg width="311" height="46" viewBox="0 0 311 46" fill="none" xmlns="http://www.w3.org/2000/svg">
<path fill-rule="evenodd" clip-rule="evenodd" d="M25.1222 7.17206C25.1222 5.63609 24.4899 4.93054 23.0502 4.93054C21.5563 4.93054 21.0372 5.67858 21.0372 7.17206V9.28564H25.1222V7.17206ZM29.7236 -0.00390625V14.0523H38.7573V6.05282C38.7577 1.61056 36.5136 -0.00390625 29.7236 -0.00390625ZM38.7577 20.5617V16.0856H29.7236V26.6185C36.5136 26.618 38.7577 25.0005 38.7577 20.5617ZM21.1513 19.4854C21.1513 20.854 21.7258 21.5175 23.0498 21.5175C24.4292 21.5175 24.9496 20.8544 24.9496 19.4854V16.0856H29.7231V14.0523H21.1513V19.4854ZM2.46983 38.9882V38.3663C2.46983 37.7098 2.63981 37.1053 3.33798 37.1053C3.97501 37.1053 4.17752 37.7293 4.17752 38.0658V38.9882H2.46983ZM6.64756 40.7523V38.0658C6.64756 36.0299 5.04785 35.3234 3.32367 35.3404C1.41303 35.3581 -0.00195312 36.1491 -0.00195312 38.568V42.4014C-0.00195312 44.5545 1.5518 45.3446 3.32367 45.3276C5.46718 45.2947 6.67662 44.1833 6.55433 41.7626H4.09903C4.0535 42.5536 4.14673 43.443 3.23087 43.394C2.68708 43.3593 2.47026 42.9213 2.47026 42.4014V40.7523H6.64756ZM10.2195 37.9639L10.1887 37.9973L10.4368 45.0254H7.84269V32.415H10.6536L12.7663 39.4609H12.8123L12.5495 32.415H15.1435V45.0254H12.3487L10.2195 37.9639ZM18.8707 38.9882V38.3663C18.8707 37.7098 19.0407 37.1053 19.7411 37.1053C20.3776 37.1053 20.5789 37.7293 20.5789 38.0658V38.9882H18.8707ZM23.048 40.7523V38.0658C23.048 36.0299 21.4483 35.3234 19.7259 35.3404C17.8139 35.3581 16.4002 36.1491 16.4002 38.568V42.4014C16.4002 44.5545 17.9549 45.3446 19.7259 45.3276C21.8681 45.2947 23.0793 44.1833 22.9552 41.7626H20.5017C20.4557 42.5536 20.5472 43.443 19.6318 43.394C19.088 43.3593 18.8707 42.9213 18.8707 42.4014V40.7523H23.048ZM23.7618 37.5441V35.6114H24.7418V32.9198H27.2102V35.6114H28.7279V37.5441H27.2102V42.5033C27.2102 43.0402 27.4287 43.1599 27.7553 43.1599C28.0345 43.1091 30.4343 43.1234 34.7088 43.1234V45.0089C30.1702 45.0926 27.3507 45.159 26.8069 45.159C25.4717 45.159 24.7423 44.4205 24.7423 42.9907V37.5446L23.7618 37.5441Z" fill="#B8BFD9"/>
<path fill-rule="evenodd" clip-rule="evenodd" d="M32.3854 40.8018V41.6929C32.3854 42.4163 32.6056 43.055 33.4742 43.055C34.1108 43.055 34.3918 42.4314 34.3918 41.7931C34.3918 40.7346 33.584 40.333 32.8684 39.8604C32.0315 39.3378 31.316 38.8526 30.8034 38.2121C30.3056 37.5742 30.0094 36.7992 30.0094 35.6922C30.0094 33.3205 31.332 32.1094 33.4426 32.1094C35.8198 32.1094 37.0297 33.8262 36.9057 36.1961H34.3914C34.3606 35.4567 34.3914 34.4463 33.4903 34.3786C32.9317 34.3279 32.6048 34.6648 32.5415 35.2203C32.4647 35.9758 32.8203 36.3647 33.3654 36.7667C34.391 37.4723 35.276 37.9103 35.9126 38.5503C36.5492 39.1865 36.9213 40.029 36.9213 41.5581C36.9213 43.9787 35.6789 45.3247 33.4109 45.3247C30.9114 45.3247 29.8555 43.8113 29.8555 42.1478V40.8018H32.3854Z" fill="#E9EDFB" stroke="#B8BFD9" stroke-width="0.465301" stroke-miterlimit="2.613"/>
<path fill-rule="evenodd" clip-rule="evenodd" d="M40.4326 38.9895V38.3677C40.4326 37.7111 40.6039 37.1066 41.3025 37.1066C41.9395 37.1066 42.142 37.7306 42.142 38.0671V38.9895H40.4326ZM44.6121 40.7536V38.0671C44.6121 36.0312 43.0106 35.3248 41.2878 35.3417C39.378 35.3595 37.9643 36.1504 37.9643 38.5693V42.4027C37.9643 44.5558 39.5176 45.3459 41.2878 45.329C43.4295 45.296 44.6424 44.1846 44.5189 41.764H42.0644C42.018 42.5549 42.1108 43.4443 41.1945 43.3953C40.6507 43.3606 40.4322 42.9227 40.4322 42.4027V40.7536H44.6121ZM49.8913 39.1088L49.877 38.9383C49.8297 38.5862 49.844 38.2159 49.782 37.8651C49.6745 37.4765 49.488 37.2757 49.1146 37.2757C48.4776 37.2757 48.3701 37.8126 48.3701 38.4201V42.3025C48.3701 42.8897 48.5249 43.3953 49.1619 43.3953C50.0773 43.3953 49.9225 41.9166 49.9225 41.2076H52.3162C52.3162 41.764 52.2534 42.9413 52.1137 43.4443C51.7868 44.6208 50.8553 45.1594 49.782 45.2774C49.55 45.296 49.3332 45.329 48.959 45.329C47.1897 45.329 45.8996 44.5558 45.8996 42.4027V38.5693C45.8996 36.1504 47.0496 35.3417 48.959 35.3417C51.3991 35.3764 52.3622 36.5182 52.223 39.1092L49.8913 39.1088ZM57.5811 45.0267V43.8663H57.5499C57.317 44.5887 56.6006 45.329 55.8244 45.329C54.3973 45.329 53.6206 44.6208 53.6206 43.3446V35.6127H56.0885V42.352C56.1197 42.79 56.2273 43.1768 56.6939 43.143C57.1301 43.1243 57.4094 42.8407 57.4094 42.352V35.6127H59.8773V45.0267H57.5811ZM63.6214 35.6127V37.0398H63.6526C63.9327 36.0312 64.5385 35.3417 65.5632 35.3417V38.3681C65.3176 38.3213 65.0679 38.2986 64.8178 38.3004C64.1192 38.3004 63.8378 38.4531 63.7931 39.2263V45.0271H61.3226V35.6131L63.6214 35.6127ZM68.9032 38.9895V38.3677C68.9032 37.7111 69.0745 37.1066 69.7713 37.1066C70.4101 37.1066 70.6122 37.7306 70.6122 38.0671V38.9895H68.9032ZM73.0805 40.7536V38.0671C73.0805 36.0312 71.4808 35.3248 69.757 35.3417C67.8464 35.3595 66.4344 36.1504 66.4344 38.5693V42.4027C66.4344 44.5558 67.9869 45.3459 69.757 45.329C71.8988 45.296 73.1117 44.1846 72.9872 41.764H70.5345C70.4881 42.5549 70.5809 43.4443 69.6638 43.3953C69.12 43.3606 68.9032 42.9227 68.9032 42.4027V40.7536H73.0805ZM32.5051 40.6903V41.5805C32.5051 42.3047 32.722 42.9443 33.5906 42.9443C34.2289 42.9443 34.5095 42.3208 34.5095 41.6824C34.5095 40.623 33.6998 40.2206 32.9861 39.7479C32.147 39.228 31.4336 38.741 30.9193 38.1005C30.4232 37.4618 30.1292 36.6894 30.1292 35.5802C30.1292 33.2103 31.4484 32 33.5606 32C35.9379 32 37.1491 33.7142 37.0233 36.0841H34.5095C34.4787 35.3456 34.5095 34.336 33.6083 34.2688C33.0485 34.2198 32.722 34.5524 32.6578 35.1092C32.5815 35.8655 32.9405 36.2528 33.4826 36.6565C34.5095 37.3603 35.3945 37.7991 36.0294 38.4366C36.6664 39.0771 37.0402 39.9171 37.0402 41.4474C37.0402 43.868 35.7974 45.214 33.5299 45.214C31.029 45.214 29.9727 43.6998 29.9727 42.0354V40.6903H32.5051ZM76.2574 36.4865L76.7062 35.3074H77.1407V36.9097H76.8588V35.6053H76.8502L76.3506 36.9097H76.1585L75.6572 35.6053H75.6503V36.9097H75.3684V35.3074H75.8003L76.2574 36.4865ZM75.0887 35.5398H74.5956V36.9102H74.3138V35.5398H73.8224V35.3078H75.0887V35.5398Z" fill="#677095"/>
<path fill-rule="evenodd" clip-rule="evenodd" d="M142.524 14.956C142.616 20.853 131.467 26.1973 117.646 26.8421C112.855 27.0264 107.419 26.2895 103.549 25.3682C108.156 26.8421 114.237 27.6712 120.779 27.3953C135.245 26.75 146.854 21.4981 146.854 15.6014C146.854 10.9945 139.852 7.40084 130.085 6.20312C137.087 7.86133 142.524 11.1783 142.524 14.956Z" fill="#E9EDFB"/>
<path fill-rule="evenodd" clip-rule="evenodd" d="M107.511 13.4784C107.511 7.58139 118.567 2.23733 132.388 1.68441C137.271 1.40795 142.708 2.23705 146.485 3.06643C141.879 1.59226 135.89 0.855029 129.255 1.13149C114.882 1.68441 103.18 6.93632 103.272 12.9255C103.272 17.4401 110.183 21.126 119.949 22.2315C113.039 20.6652 107.511 17.2558 107.511 13.4784Z" fill="#E9EDFB"/>
<path fill-rule="evenodd" clip-rule="evenodd" d="M106.404 41.2139H105.391V40.7537H107.878V41.2139H106.865V45.0837H106.404V41.2139ZM109.076 40.7537H111.195V41.2139H109.537V42.5962H111.103V43.0567H109.537V44.7154H111.195V45.0837H109.076V40.7537ZM115.157 44.9C114.973 44.9916 114.697 45.1759 114.052 45.1759C112.762 45.1759 112.393 43.8863 112.393 42.8729C112.393 41.7671 112.762 40.6615 113.959 40.6615C114.881 40.6615 115.342 41.2141 115.342 41.9517H114.789C114.789 41.4906 114.512 41.122 113.959 41.122C113.13 41.122 112.946 42.0432 112.946 42.8729C112.946 43.6099 113.13 44.7157 114.144 44.7157C114.697 44.7157 115.065 44.5314 115.157 44.4392L115.157 44.9ZM116.54 40.7537H117.092V42.5962H118.843V40.7537H119.304V45.0837H118.843V43.0567H117.092V45.0837H116.54V40.7537ZM121.054 40.7537H121.7L123.45 44.439V40.7537H123.911V45.0837H123.266L121.515 41.4906V45.0837H121.054V40.7537ZM125.938 42.8729C125.938 42.1354 126.03 41.122 126.951 41.122C127.78 41.122 127.965 42.1354 127.965 42.8729C127.965 43.702 127.78 44.7157 126.951 44.7157C126.03 44.7154 125.938 43.702 125.938 42.8729ZM126.951 45.1759C128.149 45.1759 128.426 43.9779 128.426 42.9645C128.426 41.8592 128.149 40.6615 126.951 40.6615C125.661 40.6615 125.385 41.8595 125.385 42.9645C125.385 43.9779 125.661 45.1759 126.951 45.1759ZM129.9 40.7537H130.453V44.7154H132.019V45.0837H129.9V40.7537ZM133.401 42.8729C133.401 42.1354 133.585 41.122 134.414 41.122C135.336 41.122 135.428 42.1354 135.428 42.8729C135.428 43.702 135.336 44.7157 134.414 44.7157C133.586 44.7154 133.401 43.702 133.401 42.8729ZM134.415 45.1759C135.705 45.1759 135.981 43.9779 135.981 42.9645C135.981 41.8592 135.705 40.6615 134.415 40.6615C133.217 40.6615 132.94 41.8595 132.94 42.9645C132.94 43.9779 133.217 45.1759 134.415 45.1759ZM140.219 44.7154C140.127 44.8076 139.667 45.1759 138.93 45.1759C137.64 45.1759 137.271 44.0701 137.271 42.7808C137.271 41.6749 137.64 40.6615 138.838 40.6615C139.667 40.6615 140.219 41.2141 140.219 41.9517H139.667C139.667 41.583 139.482 41.122 138.838 41.122C138.008 41.122 137.732 42.0432 137.732 42.7808C137.732 43.6099 137.916 44.7157 138.93 44.7157C139.39 44.7157 139.667 44.6235 139.759 44.5314V43.0569H138.745V42.6886H140.219V44.7154ZM142.615 43.0567L141.233 40.7537H141.786L142.799 42.5962L143.905 40.7537H144.458L143.076 43.0567V45.0837H142.615V43.0567ZM108.524 33.8427C109.261 34.3038 110.274 34.6724 110.274 35.962C110.274 37.5286 109.261 38.2655 107.51 38.2655C106.497 38.2655 105.667 38.0812 105.391 37.9891V36.9756C105.575 37.0678 106.497 37.3443 107.326 37.3443C108.432 37.3443 109.169 37.0678 109.169 36.1463C109.169 35.4093 108.247 35.0404 107.787 34.764L107.142 34.3956C106.497 34.027 105.484 33.6581 105.484 32.3685C105.484 31.1705 106.313 30.4336 108.064 30.4336C108.801 30.4336 109.446 30.6179 109.814 30.6179V31.6307C109.538 31.5392 108.801 31.2624 108.064 31.2624C107.142 31.2624 106.497 31.7229 106.497 32.2758C106.497 32.9206 107.235 33.1971 107.879 33.4738L108.524 33.8427ZM112.762 32.7372C112.854 32.1845 113.223 31.2633 114.328 31.2633C115.434 31.2633 115.803 32.1845 115.803 32.7372H112.762ZM116.816 37.16C116.448 37.2521 116.171 37.3443 115.342 37.3443C113.223 37.3443 112.67 35.225 112.67 34.027V33.6584H117.001V33.2901C117.001 31.6313 116.171 30.4339 114.421 30.4339C112.393 30.4339 111.472 31.8156 111.472 34.1192C111.472 36.8832 112.762 38.2655 115.065 38.2655C115.803 38.2655 116.355 38.1734 116.816 38.0812L116.816 37.16ZM123.911 38.0812C123.45 38.1734 122.989 38.2655 122.344 38.2655C119.949 38.2655 118.474 36.8832 118.474 34.1192C118.474 31.9078 119.304 30.4339 121.515 30.4339C123.542 30.4339 124.095 31.6313 124.095 32.829H122.805C122.805 32.0921 122.436 31.263 121.423 31.263C120.133 31.263 119.672 32.829 119.672 33.9349C119.672 35.4093 120.133 37.3443 122.621 37.3443C122.898 37.3443 123.45 37.3443 123.911 37.2521L123.911 38.0812ZM129.992 36.3309H129.9C129.716 36.9757 129.255 38.2658 127.597 38.2658C126.306 38.2658 125.661 37.16 125.661 35.9622V30.6185H126.767V34.7642C126.767 36.0544 126.767 37.16 127.873 37.16C129.255 37.16 129.992 35.0407 129.992 33.6584V30.6185H131.005V38.0812H129.992V36.3309H129.992ZM133.586 30.6185H134.692V32.0002C134.967 31.5397 135.521 30.4342 137.271 30.4342V31.54C135.521 31.54 134.692 32.9217 134.692 34.9488V38.0815H133.586V30.6185ZM139.39 32.7372C139.482 32.1845 139.851 31.2633 141.049 31.2633C142.062 31.2633 142.431 32.1845 142.431 32.7372H139.39ZM143.536 37.16C143.168 37.2521 142.891 37.3443 142.062 37.3443C139.851 37.3443 139.298 35.225 139.298 34.027V33.6584H143.721V33.2901C143.721 31.6313 142.799 30.4339 141.049 30.4339C139.022 30.4339 138.1 31.8156 138.1 34.1192C138.1 36.8832 139.482 38.2655 141.786 38.2655C142.43 38.2655 143.076 38.1734 143.536 38.0812L143.536 37.16Z" fill="#B8BFD9"/>
<path fill-rule="evenodd" clip-rule="evenodd" d="M141.692 14.1243C141.692 20.0212 130.543 25.3656 116.814 25.9182C111.931 26.1025 106.495 25.3656 102.625 24.4438C107.232 26.0104 113.313 26.7473 119.947 26.4709C134.321 25.9182 145.931 20.5742 145.931 14.6772C145.931 10.0701 139.02 6.47665 129.253 5.37109C136.163 6.93742 141.6 10.2547 141.692 14.1243Z" fill="#B8BFD9"/>
<path fill-rule="evenodd" clip-rule="evenodd" d="M106.588 12.5602C106.588 6.66318 117.737 1.31912 131.466 0.766197C136.349 0.58189 141.785 1.31912 145.655 2.24037C141.049 0.674043 134.967 -0.0631848 128.333 0.213276C113.959 0.766478 102.35 6.11054 102.35 12.0075C102.35 16.6146 109.352 20.2081 119.119 21.4058C112.116 19.747 106.68 16.43 106.588 12.5602Z" fill="#B8BFD9"/>
<path d="M200.052 23.6787L196.589 33.0289L196.218 31.1265C195.353 28.7961 193.479 26.3515 191.301 25.3528L194.478 37.3664H198.235L203.818 23.6597H200.052V23.6787ZM203.029 37.3949L205.245 23.6597H208.793L206.577 37.3949H203.029ZM219.437 24.0021C218.733 23.7263 217.63 23.4219 216.26 23.4219C212.75 23.4219 210.287 25.2862 210.268 27.9496C210.249 29.928 212.027 31.0219 213.368 31.6782C214.757 32.3536 215.214 32.7816 215.214 33.3809C215.204 34.3035 214.11 34.722 213.093 34.722C211.675 34.722 210.924 34.5128 209.754 34.0086L209.297 33.7899L208.803 36.8622C209.63 37.2427 211.162 37.5756 212.76 37.5946C216.479 37.5946 218.904 35.7493 218.933 32.9053C218.952 31.3358 218.001 30.1563 215.956 29.1766C214.719 28.5393 213.958 28.1208 213.968 27.474C213.968 26.9032 214.605 26.2945 216.003 26.2945C217.164 26.2755 218.001 26.5418 218.657 26.8271L218.971 26.9888L219.437 24.0021ZM228.53 23.6787H225.791C224.944 23.6787 224.307 23.9165 223.927 24.8201L218.667 37.4044H222.386C222.386 37.4044 222.994 35.7113 223.137 35.3403C223.546 35.3403 227.161 35.3498 227.674 35.3498C227.789 35.8254 228.102 37.4044 228.102 37.4044H231.403L228.53 23.6787ZM224.155 32.5248C224.45 31.7353 225.563 28.682 225.563 28.682C225.544 28.72 225.858 27.8925 226.038 27.3693L226.276 28.5488C226.276 28.5488 226.961 31.8304 227.104 32.5153C226.552 32.5248 224.849 32.5248 224.155 32.5248Z" fill="#B8BFD9"/>
<path d="M193.366 23.668H187.649L187.611 23.9058C192.053 25.0472 194.993 27.8342 196.21 31.1348L194.974 24.8189C194.764 23.9533 194.137 23.6965 193.366 23.668Z" fill="#677095"/>
<path d="M176.919 20.3511H174.665L172.049 8.59435L174.55 8.17583L176.339 17.3739L180.885 8.29948H183.282L176.919 20.3511ZM188.685 16.5083H183.292C183.14 18.1443 183.901 18.8577 185.194 18.8577C186.269 18.8577 187.22 18.4582 188.238 17.8114L188.229 19.4475C187.23 20.0752 186.069 20.4747 184.709 20.4747C182.36 20.4747 180.809 19.1336 181.275 16.1088C181.694 13.3788 183.587 11.7238 185.775 11.7238C188.295 11.7238 189.132 13.6166 188.771 16.0041C188.752 16.1754 188.695 16.3846 188.685 16.5083ZM185.508 13.1696C184.671 13.1696 183.891 13.8259 183.53 15.2051H186.868C186.925 13.902 186.516 13.1696 185.508 13.1696ZM192.195 15.481L191.453 20.294H189.37L190.664 11.895H192.442V13.5786C193.146 12.6084 194.107 11.7904 195.429 11.7143L195.439 13.7879C194.107 13.883 192.927 14.5774 192.195 15.481ZM195.401 20.294L196.694 11.895H198.777L197.493 20.294H195.401ZM197.969 10.4872C197.274 10.4872 196.789 10.0021 196.903 9.30775C197.018 8.59435 197.645 8.09022 198.34 8.09022C199.015 8.09022 199.5 8.59435 199.386 9.30775C199.281 10.0021 198.654 10.4872 197.969 10.4872ZM204.561 9.60262C203.847 9.60262 203.419 9.91651 203.305 10.668L203.115 11.9045H204.713V13.6071H202.848L201.821 20.294H199.748L200.775 13.5976H199.557L199.824 11.895H201.041L201.26 10.4492C201.545 8.58484 202.839 7.89047 204.561 7.89047C204.922 7.89047 205.198 7.92852 205.407 7.95706L205.426 9.65969C205.217 9.64067 204.913 9.60262 204.561 9.60262ZM204.58 20.294L205.873 11.895H207.956L206.672 20.294H204.58ZM207.157 10.4872C206.463 10.4872 205.978 10.0021 206.082 9.30775C206.197 8.59435 206.824 8.09022 207.519 8.09022C208.194 8.09022 208.679 8.59435 208.565 9.30775C208.46 10.0021 207.833 10.4872 207.157 10.4872ZM216.06 16.5083H210.667C210.525 18.1443 211.276 18.8577 212.57 18.8577C213.644 18.8577 214.596 18.4582 215.613 17.8114L215.604 19.4475C214.605 20.0752 213.445 20.4747 212.084 20.4747C209.735 20.4747 208.185 19.1336 208.651 16.1088C209.069 13.3788 210.962 11.7238 213.15 11.7238C215.67 11.7238 216.508 13.6166 216.146 16.0041C216.127 16.1754 216.07 16.3846 216.06 16.5083ZM212.883 13.1696C212.046 13.1696 211.266 13.8259 210.905 15.2051H214.244C214.301 13.902 213.892 13.1696 212.883 13.1696ZM222.234 20.294L222.243 19.1241C221.539 19.8374 220.626 20.4652 219.466 20.4652C217.706 20.4652 216.498 19.1621 216.936 16.3275C217.421 13.1981 219.352 11.8094 221.302 11.8094C222.101 11.8094 222.728 11.9521 223.204 12.1233L223.832 8.0712L225.972 7.73828L224.041 20.294H222.234ZM222.938 13.8449C222.452 13.5976 222.072 13.4835 221.359 13.4835C220.265 13.4835 219.323 14.3681 219.047 16.2134C218.8 17.8495 219.371 18.6104 220.293 18.6104C221.054 18.6104 221.72 18.1538 222.386 17.4595L222.938 13.8449ZM230.423 20.3796C229.434 20.3796 228.626 20.2179 227.884 19.9611L229.254 11.0389L230.871 10.7916L230.281 14.6534C230.756 14.2349 231.413 13.8069 232.212 13.8069C233.553 13.8069 234.457 14.8056 234.124 16.9458C233.762 19.2858 232.316 20.3796 230.423 20.3796ZM231.593 15.1956C231.07 15.1956 230.538 15.5476 230.072 16.0232L229.624 18.9053C229.938 19.0194 230.148 19.0765 230.595 19.0765C231.593 19.0765 232.297 18.4677 232.516 17.0219C232.706 15.8044 232.297 15.1956 231.593 15.1956ZM237.852 20.646C237.044 22.2154 236.245 22.7005 235.018 22.7005C234.742 22.7005 234.59 22.672 234.447 22.634L234.438 21.3308C234.637 21.3879 234.856 21.4259 235.16 21.4259C235.617 21.4259 236.026 21.2167 236.292 20.7506L236.502 20.3321L235.16 14.0637L236.844 13.8544L237.624 18.3821L239.726 13.9401H241.296L237.852 20.646Z" fill="#B8BFD9"/>
<path fill-rule="evenodd" clip-rule="evenodd" d="M306.674 14.956C306.766 20.853 295.617 26.1973 281.796 26.8421C277.005 27.0264 271.569 26.2895 267.699 25.3682C272.306 26.8421 278.387 27.6712 284.929 27.3953C299.395 26.75 311.005 21.4981 311.005 15.6014C311.005 10.9945 304.002 7.40084 294.235 6.20312C301.237 7.86133 306.674 11.1783 306.674 14.956Z" fill="#E9EDFB"/>
<path fill-rule="evenodd" clip-rule="evenodd" d="M271.661 13.4784C271.661 7.58139 282.718 2.23733 296.538 1.68441C301.422 1.40795 306.858 2.23705 310.636 3.06643C306.029 1.59226 300.04 0.855029 293.406 1.13149C279.032 1.68441 267.33 6.93632 267.422 12.9255C267.422 17.4401 274.333 21.126 284.1 22.2315C277.189 20.6652 271.661 17.2558 271.661 13.4784Z" fill="#E9EDFB"/>
<path fill-rule="evenodd" clip-rule="evenodd" d="M270.555 41.2139H269.541V40.7537H272.029V41.2139H271.015V45.0837H270.555V41.2139ZM273.227 40.7537H275.346V41.2139H273.687V42.5962H275.254V43.0567H273.687V44.7154H275.346V45.0837H273.227V40.7537ZM279.308 44.9C279.124 44.9916 278.847 45.1759 278.202 45.1759C276.912 45.1759 276.544 43.8863 276.544 42.8729C276.544 41.7671 276.912 40.6615 278.11 40.6615C279.031 40.6615 279.492 41.2141 279.492 41.9517H278.939C278.939 41.4906 278.663 41.122 278.11 41.122C277.281 41.122 277.096 42.0432 277.096 42.8729C277.096 43.6099 277.281 44.7157 278.294 44.7157C278.847 44.7157 279.215 44.5314 279.308 44.4392L279.308 44.9ZM280.69 40.7537H281.243V42.5962H282.993V40.7537H283.454V45.0837H282.993V43.0567H281.243V45.0837H280.69V40.7537ZM285.205 40.7537H285.85L287.601 44.439V40.7537H288.061V45.0837H287.416L285.666 41.4906V45.0837H285.205V40.7537ZM290.088 42.8729C290.088 42.1354 290.18 41.122 291.102 41.122C291.931 41.122 292.115 42.1354 292.115 42.8729C292.115 43.702 291.931 44.7157 291.102 44.7157C290.18 44.7154 290.088 43.702 290.088 42.8729ZM291.102 45.1759C292.3 45.1759 292.576 43.9779 292.576 42.9645C292.576 41.8592 292.3 40.6615 291.102 40.6615C289.811 40.6615 289.536 41.8595 289.536 42.9645C289.536 43.9779 289.811 45.1759 291.102 45.1759ZM294.05 40.7537H294.603V44.7154H296.169V45.0837H294.05V40.7537ZM297.551 42.8729C297.551 42.1354 297.736 41.122 298.565 41.122C299.486 41.122 299.578 42.1354 299.578 42.8729C299.578 43.702 299.486 44.7157 298.565 44.7157C297.736 44.7154 297.551 43.702 297.551 42.8729ZM298.565 45.1759C299.855 45.1759 300.131 43.9779 300.131 42.9645C300.131 41.8592 299.855 40.6615 298.565 40.6615C297.367 40.6615 297.091 41.8595 297.091 42.9645C297.091 43.9779 297.367 45.1759 298.565 45.1759ZM304.37 44.7154C304.278 44.8076 303.817 45.1759 303.08 45.1759C301.79 45.1759 301.421 44.0701 301.421 42.7808C301.421 41.6749 301.79 40.6615 302.988 40.6615C303.817 40.6615 304.37 41.2141 304.37 41.9517H303.817C303.817 41.583 303.633 41.122 302.988 41.122C302.159 41.122 301.882 42.0432 301.882 42.7808C301.882 43.6099 302.066 44.7157 303.08 44.7157C303.541 44.7157 303.817 44.6235 303.909 44.5314V43.0569H302.896V42.6886H304.37V44.7154ZM306.765 43.0567L305.383 40.7537H305.936L306.95 42.5962L308.056 40.7537H308.608L307.226 43.0567V45.0837H306.765V43.0567ZM272.674 33.8427C273.411 34.3038 274.425 34.6724 274.425 35.962C274.425 37.5286 273.411 38.2655 271.661 38.2655C270.647 38.2655 269.818 38.0812 269.541 37.9891V36.9756C269.726 37.0678 270.647 37.3443 271.476 37.3443C272.582 37.3443 273.319 37.0678 273.319 36.1463C273.319 35.4093 272.398 35.0404 271.937 34.764L271.292 34.3956C270.647 34.027 269.634 33.6581 269.634 32.3685C269.634 31.1705 270.463 30.4336 272.214 30.4336C272.951 30.4336 273.596 30.6179 273.965 30.6179V31.6307C273.688 31.5392 272.951 31.2624 272.214 31.2624C271.293 31.2624 270.648 31.7229 270.648 32.2758C270.648 32.9206 271.385 33.1971 272.03 33.4738L272.674 33.8427ZM276.912 32.7372C277.004 32.1845 277.373 31.2633 278.479 31.2633C279.584 31.2633 279.953 32.1845 279.953 32.7372H276.912ZM280.967 37.16C280.598 37.2521 280.322 37.3443 279.492 37.3443C277.373 37.3443 276.82 35.225 276.82 34.027V33.6584H281.151V33.2901C281.151 31.6313 280.322 30.4339 278.571 30.4339C276.544 30.4339 275.622 31.8156 275.622 34.1192C275.622 36.8832 276.912 38.2655 279.216 38.2655C279.953 38.2655 280.506 38.1734 280.966 38.0812L280.967 37.16ZM288.061 38.0812C287.6 38.1734 287.14 38.2655 286.495 38.2655C284.099 38.2655 282.625 36.8832 282.625 34.1192C282.625 31.9078 283.454 30.4339 285.666 30.4339C287.693 30.4339 288.245 31.6313 288.245 32.829H286.956C286.956 32.0921 286.587 31.263 285.573 31.263C284.284 31.263 283.823 32.829 283.823 33.9349C283.823 35.4093 284.284 37.3443 286.771 37.3443C287.048 37.3443 287.601 37.3443 288.061 37.2521L288.061 38.0812ZM294.142 36.3309H294.05C293.866 36.9757 293.405 38.2658 291.747 38.2658C290.457 38.2658 289.811 37.16 289.811 35.9622V30.6185H290.917V34.7642C290.917 36.0544 290.917 37.16 292.023 37.16C293.405 37.16 294.142 35.0407 294.142 33.6584V30.6185H295.156V38.0812H294.142V36.3309H294.142ZM297.736 30.6185H298.842V32.0002C299.118 31.5397 299.671 30.4342 301.422 30.4342V31.54C299.671 31.54 298.842 32.9217 298.842 34.9488V38.0815H297.736V30.6185ZM303.541 32.7372C303.633 32.1845 304.002 31.2633 305.199 31.2633C306.213 31.2633 306.581 32.1845 306.581 32.7372H303.541ZM307.687 37.16C307.318 37.2521 307.042 37.3443 306.213 37.3443C304.001 37.3443 303.448 35.225 303.448 34.027V33.6584H307.871V33.2901C307.871 31.6313 306.95 30.4339 305.199 30.4339C303.172 30.4339 302.25 31.8156 302.25 34.1192C302.25 36.8832 303.632 38.2655 305.936 38.2655C306.581 38.2655 307.226 38.1734 307.686 38.0812L307.687 37.16Z" fill="#B8BFD9"/>
<path fill-rule="evenodd" clip-rule="evenodd" d="M305.842 14.1243C305.842 20.0212 294.693 25.3656 280.965 25.9182C276.081 26.1025 270.645 25.3656 266.775 24.4438C271.382 26.0104 277.464 26.7473 284.098 26.4709C298.471 25.9182 310.081 20.5742 310.081 14.6772C310.081 10.0701 303.171 6.47665 293.404 5.37109C300.314 6.93742 305.75 10.2547 305.842 14.1243Z" fill="#B8BFD9"/>
<path fill-rule="evenodd" clip-rule="evenodd" d="M270.738 12.5602C270.738 6.66318 281.887 1.31912 295.616 0.766197C300.5 0.58189 305.936 1.31912 309.806 2.24037C305.199 0.674043 299.117 -0.0631848 292.484 0.213276C278.11 0.766478 266.5 6.11054 266.5 12.0075C266.5 16.6146 273.503 20.2081 283.269 21.4058C276.267 19.747 270.831 16.43 270.738 12.5602Z" fill="#B8BFD9"/>
</svg>
