<svg width="61" height="41" viewBox="0 0 61 41" fill="none" xmlns="http://www.w3.org/2000/svg">
<path fill-rule="evenodd" clip-rule="evenodd" d="M17.71 26.0703H15.0584C14.877 26.0703 14.7227 26.2019 14.6944 26.3806L13.6219 33.1651C13.6006 33.2991 13.7045 33.4197 13.8406 33.4197H15.1065C15.288 33.4197 15.4423 33.2881 15.4706 33.1091L15.7598 31.2792C15.7877 31.1 15.9424 30.9686 16.1235 30.9686H16.9629C18.7096 30.9686 19.7176 30.1252 19.981 28.4539C20.0996 27.7228 19.986 27.1483 19.6428 26.7458C19.266 26.3041 18.5975 26.0703 17.71 26.0703ZM18.0159 28.5483C17.871 29.4977 17.144 29.4977 16.441 29.4977H16.0409L16.3216 27.7246C16.3383 27.6175 16.4313 27.5385 16.5399 27.5385H16.7233C17.2021 27.5385 17.6539 27.5385 17.8873 27.8109C18.0264 27.9734 18.0691 28.2147 18.0159 28.5483ZM25.6363 28.5178H24.3665C24.2583 28.5178 24.1648 28.5968 24.1481 28.704L24.092 29.0583L24.0032 28.93C23.7283 28.5318 23.1154 28.3988 22.5035 28.3988C21.1003 28.3988 19.9019 29.4592 19.6684 30.9468C19.5472 31.6887 19.7196 32.3982 20.1414 32.893C20.5284 33.3479 21.0821 33.5375 21.7408 33.5375C22.8714 33.5375 23.4984 32.8121 23.4984 32.8121L23.4417 33.1642C23.4204 33.2989 23.5243 33.4195 23.6596 33.4195H24.8034C24.9853 33.4195 25.1387 33.288 25.1675 33.1089L25.8538 28.7724C25.8755 28.6391 25.7719 28.5178 25.6363 28.5178ZM23.8663 30.9838C23.7437 31.7076 23.1679 32.1935 22.4337 32.1935C22.065 32.1935 21.7702 32.0756 21.5811 31.8519C21.3934 31.6299 21.322 31.3138 21.3818 30.9618C21.4962 30.2441 22.0817 29.7424 22.8048 29.7424C23.1653 29.7424 23.4584 29.8618 23.6515 30.0874C23.8449 30.3153 23.9217 30.6333 23.8663 30.9838ZM31.1229 28.5177H32.399C32.5777 28.5177 32.6819 28.7176 32.5804 28.8639L28.3365 34.9764C28.2677 35.0754 28.1545 35.1343 28.0336 35.1343H26.7591C26.5797 35.1343 26.4749 34.9327 26.5788 34.7861L27.9003 32.9249L26.4948 28.8093C26.4462 28.6663 26.5521 28.5177 26.7046 28.5177H27.9584C28.1213 28.5177 28.265 28.6244 28.312 28.78L29.0579 31.2656L30.8179 28.679C30.8868 28.578 31.0013 28.5177 31.1229 28.5177Z" fill="#253B80"/>
<path fill-rule="evenodd" clip-rule="evenodd" d="M44.9602 33.1655L46.0484 26.2569C46.0651 26.1496 46.1583 26.0707 46.2665 26.0703H47.4916C47.6268 26.0703 47.7307 26.1913 47.7094 26.3253L46.6362 33.1095C46.6083 33.2885 46.4539 33.4201 46.2722 33.4201H45.1781C45.0428 33.4201 44.9389 33.2994 44.9602 33.1655ZM36.6261 26.0707H33.9741C33.793 26.0707 33.6387 26.2023 33.6104 26.3809L32.5379 33.1655C32.5166 33.2994 32.6205 33.4201 32.7559 33.4201H34.1167C34.2432 33.4201 34.3514 33.3281 34.3711 33.2027L34.6754 31.2796C34.7034 31.1004 34.8581 30.969 35.0391 30.969H35.8781C37.6252 30.969 38.633 30.1255 38.8966 28.4543C39.0155 27.7231 38.9012 27.1486 38.5582 26.7462C38.1816 26.3045 37.5136 26.0707 36.6261 26.0707ZM36.9321 28.5486C36.7874 29.498 36.0604 29.498 35.3571 29.498H34.9573L35.2385 27.7249C35.2552 27.6179 35.3474 27.5389 35.4563 27.5389H35.6397C36.1182 27.5389 36.5703 27.5389 36.8036 27.8112C36.9428 27.9738 36.9852 28.2151 36.9321 28.5486ZM44.5517 28.5182H43.2828C43.1737 28.5182 43.0811 28.5972 43.0648 28.7044L43.0086 29.0587L42.9195 28.9303C42.6446 28.5322 42.032 28.3992 41.4202 28.3992C40.0169 28.3992 38.8189 29.4596 38.5855 30.9471C38.4645 31.689 38.6362 32.3985 39.0581 32.8934C39.4458 33.3483 39.9988 33.5379 40.6575 33.5379C41.788 33.5379 42.4149 32.8124 42.4149 32.8124L42.3584 33.1646C42.337 33.2992 42.4409 33.4199 42.5771 33.4199H43.7204C43.9015 33.4199 44.0558 33.2883 44.0841 33.1093L44.7708 28.7728C44.7918 28.6394 44.6879 28.5182 44.5517 28.5182ZM42.7818 30.9842C42.66 31.708 42.0835 32.1939 41.3491 32.1939C40.9811 32.1939 40.6858 32.0759 40.4965 31.8523C40.3088 31.6303 40.2383 31.3141 40.2973 30.9622C40.4124 30.2444 40.9971 29.7428 41.7202 29.7428C42.0808 29.7428 42.3738 29.8622 42.5671 30.0878C42.7612 30.3157 42.838 30.6336 42.7818 30.9842Z" fill="#179BD7"/>
<path d="M27.5218 23.6436L27.8478 21.5776L27.1217 21.5607H23.6543L26.064 6.31512C26.0713 6.26909 26.0957 6.22617 26.1313 6.1957C26.1668 6.16523 26.2124 6.14844 26.2597 6.14844H32.1063C34.0473 6.14844 35.3867 6.55145 36.0861 7.34691C36.4139 7.72008 36.6228 8.11003 36.7238 8.53917C36.8296 8.98947 36.8316 9.52744 36.7281 10.1836L36.7205 10.2315V10.6519L37.0485 10.8372C37.3247 10.9834 37.5439 11.1507 37.7122 11.3423C37.9928 11.6613 38.1742 12.0668 38.2509 12.5476C38.33 13.042 38.3038 13.6304 38.1742 14.2965C38.0246 15.0627 37.7827 15.73 37.4562 16.2761C37.1556 16.7793 36.7729 17.1965 36.3186 17.52C35.8848 17.8272 35.3693 18.0605 34.7865 18.2098C34.2217 18.3564 33.5779 18.4306 32.8717 18.4306H32.4167C32.0914 18.4306 31.7752 18.5475 31.5273 18.7571C31.2786 18.971 31.1139 19.2632 31.0635 19.583L31.0292 19.769L30.4532 23.4103L30.427 23.544C30.4202 23.5865 30.4084 23.6076 30.391 23.6219C30.3754 23.6348 30.3529 23.6436 30.331 23.6436H27.5218Z" fill="#253B80"/>
<path d="M37.3603 10.2812C37.3429 10.3926 37.323 10.5064 37.3006 10.6233C36.5294 14.5733 33.8917 15.9378 30.5226 15.9378H28.8073C28.3954 15.9378 28.0482 16.2363 27.9839 16.6418L27.1057 22.1995L26.857 23.7748C26.8152 24.0411 27.021 24.2811 27.2901 24.2811H30.3326C30.6929 24.2811 30.9988 24.0199 31.0555 23.6654L31.0855 23.5111L31.6584 19.8839L31.6952 19.685C31.7511 19.3293 32.0578 19.0681 32.4181 19.0681H32.8731C35.8207 19.0681 38.1283 17.874 38.8027 14.4184C39.0844 12.9749 38.9385 11.7696 38.193 10.9218C37.9675 10.6662 37.6876 10.4541 37.3603 10.2812Z" fill="#179BD7"/>
<path d="M36.5542 9.95973C36.4365 9.92552 36.3149 9.89442 36.1902 9.86644C36.0649 9.83908 35.9365 9.81482 35.8044 9.79368C35.3419 9.71904 34.8352 9.68359 34.2922 9.68359H29.7097C29.5969 9.68359 29.4897 9.70909 29.3938 9.75512C29.1824 9.85648 29.0254 10.0561 28.9874 10.3006L28.0124 16.4615L27.9844 16.6412C28.0486 16.2357 28.3958 15.9372 28.8078 15.9372H30.5231C33.8921 15.9372 36.53 14.572 37.301 10.6227C37.324 10.5058 37.3433 10.392 37.3608 10.2807C37.1657 10.1774 36.9544 10.0891 36.7268 10.0138C36.6709 9.99518 36.6129 9.97715 36.5542 9.95973Z" fill="#222D65"/>
<path d="M28.9885 10.3C29.0265 10.0556 29.1837 9.85597 29.3949 9.75521C29.4916 9.70918 29.5982 9.68368 29.7109 9.68368H34.2935C34.8365 9.68368 35.3432 9.71913 35.8055 9.79377C35.9378 9.81491 36.0663 9.83917 36.1915 9.86653C36.3162 9.89453 36.4377 9.92563 36.5555 9.95982C36.614 9.97724 36.672 9.99527 36.7287 10.0133C36.9562 10.0886 37.1676 10.1775 37.3626 10.2801C37.5921 8.82043 37.3608 7.82657 36.5699 6.92662C35.6979 5.93588 34.124 5.51172 32.1101 5.51172H26.2634C25.852 5.51172 25.5012 5.81024 25.4375 6.21637L23.0023 21.6187C22.9543 21.9234 23.1898 22.1984 23.4977 22.1984H27.1074L28.0137 16.461L28.9885 10.3Z" fill="#253B80"/>
</svg>
