<svg width="16" height="15" viewBox="0 0 16 15" fill="none" xmlns="http://www.w3.org/2000/svg">
<path d="M5.71596 5.8577C7.13612 5.8577 8.28739 4.70643 8.28739 3.28627C8.28739 1.86611 7.13612 0.714844 5.71596 0.714844C4.2958 0.714844 3.14453 1.86611 3.14453 3.28627C3.14453 4.70643 4.2958 5.8577 5.71596 5.8577Z" stroke="#000E46" stroke-linecap="round" stroke-linejoin="round"/>
<path d="M10.858 14.4302H0.572266V13.2874C0.572266 11.9234 1.1141 10.6153 2.07857 9.65084C3.04305 8.68637 4.35115 8.14453 5.71512 8.14453C7.07909 8.14453 8.3872 8.68637 9.35167 9.65084C10.3161 10.6153 10.858 11.9234 10.858 13.2874V14.4302Z" stroke="#000E46" stroke-linecap="round" stroke-linejoin="round"/>
<path d="M10.2871 0.714844C10.9691 0.714844 11.6231 0.985761 12.1054 1.468C12.5876 1.95023 12.8585 2.60429 12.8585 3.28627C12.8585 3.96826 12.5876 4.62231 12.1054 5.10455C11.6231 5.58678 10.9691 5.8577 10.2871 5.8577" stroke="#000E46" stroke-linecap="round" stroke-linejoin="round"/>
<path d="M12.1152 8.35938C13.0888 8.72972 13.9269 9.38693 14.5187 10.2441C15.1105 11.1012 15.4281 12.1178 15.4295 13.1594V14.4279H13.7152" stroke="#000E46" stroke-linecap="round" stroke-linejoin="round"/>
</svg>
