<svg width="40" height="41" viewBox="0 0 40 41" fill="none" xmlns="http://www.w3.org/2000/svg">
<rect y="0.65625" width="40" height="40" rx="3.38648" fill="white"/>
<path d="M21.6688 34.0567V31.0451H24.6821V34.0567H21.6688ZM18.6555 31.0451V23.6734H21.6688V31.0451H18.6555ZM30.3871 25.4034V20.6601H33.3988V25.4034H30.3871ZM27.3738 20.6601V17.6467H30.3871V20.6601H27.3738ZM9.6188 23.6734V20.6601H12.6321V23.6734H9.6188ZM6.60547 20.6601V17.6467H9.61714L9.6188 20.6601H6.60547ZM20.0021 10.2767V7.26172H23.0155V10.2734L20.0021 10.2767ZM8.0788 14.8267H14.1688V8.73672H8.0788V14.8267ZM6.60547 14.9551V8.60839C6.60547 8.22727 6.73436 7.90783 6.99214 7.65005C7.24991 7.39227 7.56936 7.26339 7.95047 7.26339H14.2971C14.6782 7.26339 14.9977 7.39227 15.2555 7.65005C15.5144 7.90783 15.6438 8.22727 15.6438 8.60839V14.9551C15.6438 15.3362 15.5144 15.6556 15.2555 15.9134C14.9977 16.1723 14.6782 16.3017 14.2971 16.3017H7.95047C7.56936 16.3017 7.24991 16.1723 6.99214 15.9134C6.73436 15.6556 6.60547 15.3362 6.60547 14.9551ZM8.0788 32.5834H14.4255V26.4934H8.0788V32.5834ZM6.60547 32.7117V26.3651C6.60547 25.9839 6.73436 25.6645 6.99214 25.4067C7.24991 25.1478 7.56936 25.0184 7.95047 25.0184H14.5538C14.9349 25.0184 15.2544 25.1478 15.5121 25.4067C15.7699 25.6645 15.8988 25.9839 15.8988 26.3651V32.7117C15.8988 33.0928 15.7699 33.4123 15.5121 33.6701C15.2544 33.9278 14.9349 34.0567 14.5538 34.0567H7.95047C7.56936 34.0567 7.24991 33.9278 6.99214 33.6701C6.73436 33.4123 6.60547 33.0928 6.60547 32.7117ZM25.8355 14.8267H31.9255V8.73672H25.8355V14.8267ZM24.3605 14.9551V8.60839C24.3605 8.22727 24.4899 7.90783 24.7488 7.65005C25.0066 7.39227 25.326 7.26339 25.7071 7.26339H32.0538C32.4349 7.26339 32.7544 7.39227 33.0121 7.65005C33.2699 7.90783 33.3988 8.22727 33.3988 8.60839V14.9551C33.3988 15.3362 33.2699 15.6556 33.0121 15.9134C32.7544 16.1723 32.4349 16.3017 32.0538 16.3017H25.7071C25.326 16.3017 25.0066 16.1723 24.7488 15.9134C24.4899 15.6556 24.3605 15.3362 24.3605 14.9551ZM27.3738 34.0567V28.4167H24.3605V25.4034H30.3871V31.0451H33.3988V34.0567H27.3738ZM21.6688 23.6734V20.6601H27.3738V23.6734H21.6688ZM15.6438 23.6734V20.6601H12.6321L12.6305 17.6467H21.6688V20.6601H18.6555V23.6734H15.6438ZM16.9888 16.3017V10.2751L20.0021 10.2767V13.2884H23.0155V16.3017H16.9888ZM10.0655 12.8401V10.7234H12.1821V12.8401H10.0655ZM10.2905 30.3717V28.2551H12.4071V30.3717H10.2905ZM27.8238 12.8384V10.7251H29.9388V12.8417L27.8238 12.8384Z" fill="#000E46"/>
</svg>
