<svg width="16" height="16" viewBox="0 0 16 16" fill="none" xmlns="http://www.w3.org/2000/svg">
<path d="M8.41227 15.3475C8.14749 15.4496 7.85418 15.4496 7.58941 15.3475V15.3475C5.52163 14.5367 3.74613 13.1216 2.49442 11.2869C1.24271 9.45214 0.572878 7.2828 0.572266 5.06174V1.71317C0.572266 1.41007 0.692673 1.11937 0.907001 0.905048C1.12133 0.69072 1.41202 0.570313 1.71512 0.570312H14.2866C14.5897 0.570313 14.8803 0.69072 15.0947 0.905048C15.309 1.11937 15.4294 1.41007 15.4294 1.71317V5.05031C15.4311 7.27332 14.7623 9.44516 13.5105 11.2822C12.2586 13.1192 10.4819 14.536 8.41227 15.3475V15.3475Z" stroke="#000E46" stroke-linecap="round" stroke-linejoin="round"/>
<path d="M9.71596 6.28516H6.28739C5.65621 6.28516 5.14453 6.79683 5.14453 7.42801V9.71373C5.14453 10.3449 5.65621 10.8566 6.28739 10.8566H9.71596C10.3471 10.8566 10.8588 10.3449 10.8588 9.71373V7.42801C10.8588 6.79683 10.3471 6.28516 9.71596 6.28516Z" stroke="#000E46" stroke-linecap="round" stroke-linejoin="round"/>
<path d="M9.71568 6.28292V5.14007C9.71568 4.91494 9.67134 4.69203 9.58519 4.48404C9.49904 4.27605 9.37276 4.08707 9.21358 3.92788C9.05439 3.7687 8.86541 3.64242 8.65742 3.55627C8.44944 3.47012 8.22652 3.42578 8.0014 3.42578C7.77627 3.42578 7.55335 3.47012 7.34537 3.55627C7.13738 3.64242 6.9484 3.7687 6.78921 3.92788C6.63003 4.08707 6.50375 4.27605 6.4176 4.48404C6.33145 4.69203 6.28711 4.91494 6.28711 5.14007V6.28292" stroke="#000E46" stroke-linecap="round" stroke-linejoin="round"/>
</svg>
