<svg width="17" height="16" viewBox="0 0 17 16" fill="none" xmlns="http://www.w3.org/2000/svg">
<g clip-path="url(#clip0_1153_13442)">
<path d="M2.21484 9.71484V14.8577C2.21484 15.0093 2.27505 15.1546 2.38221 15.2618C2.48937 15.3689 2.63472 15.4291 2.78627 15.4291H14.2148C14.3664 15.4291 14.5117 15.3689 14.6189 15.2618C14.7261 15.1546 14.7863 15.0093 14.7863 14.8577V9.71484" stroke="#8D95B7" stroke-linecap="round" stroke-linejoin="round"/>
<path d="M9.64258 9.71484V15.4291" stroke="#8D95B7" stroke-linecap="round" stroke-linejoin="round"/>
<path d="M1.07227 4.57031L2.78655 0.570312H14.2151L15.9294 4.57031H1.07227Z" stroke="#8D95B7" stroke-linecap="round" stroke-linejoin="round"/>
<path d="M5.92854 4.57031V5.71317C5.92854 6.31938 5.68772 6.90076 5.25907 7.32941C4.83041 7.75807 4.24903 7.99888 3.64282 7.99888H3.32282C2.71661 7.99888 2.13523 7.75807 1.70658 7.32941C1.27793 6.90076 1.03711 6.31938 1.03711 5.71317V4.57031" stroke="#8D95B7" stroke-linecap="round" stroke-linejoin="round"/>
<path d="M11.0706 4.57031V5.71317C11.0706 6.31938 10.8298 6.90076 10.4011 7.32941C9.97247 7.75807 9.39109 7.99888 8.78488 7.99888H8.21345C7.60724 7.99888 7.02586 7.75807 6.5972 7.32941C6.16855 6.90076 5.92773 6.31938 5.92773 5.71317V4.57031" stroke="#8D95B7" stroke-linecap="round" stroke-linejoin="round"/>
<path d="M15.9294 4.57031V5.71317C15.9294 6.31938 15.6886 6.90076 15.2599 7.32941C14.8313 7.75807 14.2499 7.99888 13.6437 7.99888H13.358C12.7518 7.99888 12.1704 7.75807 11.7417 7.32941C11.3131 6.90076 11.0723 6.31938 11.0723 5.71317V4.57031" stroke="#8D95B7" stroke-linecap="round" stroke-linejoin="round"/>
</g>
<defs>
<clipPath id="clip0_1153_13442">
<rect width="16" height="16" fill="white" transform="translate(0.5)"/>
</clipPath>
</defs>
</svg>
