<svg width="59" height="39" viewBox="0 0 59 39" fill="none" xmlns="http://www.w3.org/2000/svg">
<path fill-rule="evenodd" clip-rule="evenodd" d="M21.1524 8.30715L16.379 18.3326C16.3608 18.3699 16.3551 18.412 16.3626 18.4528C16.3701 18.4936 16.3904 18.5309 16.4206 18.5593L29.3125 30.9114C29.3491 30.9465 29.3979 30.9661 29.4486 30.9661C29.4994 30.9661 29.5482 30.9465 29.5848 30.9114L42.4766 18.5601C42.5069 18.5317 42.5272 18.4943 42.5347 18.4535C42.5422 18.4128 42.5365 18.3706 42.5183 18.3333L37.7449 8.30792C37.7295 8.27425 37.7047 8.24573 37.6735 8.22576C37.6423 8.2058 37.606 8.19523 37.569 8.19533H21.3298C21.2926 8.19486 21.2561 8.20518 21.2246 8.22502C21.1931 8.24486 21.168 8.27338 21.1524 8.30715Z" fill="#50AF95"/>
<path fill-rule="evenodd" clip-rule="evenodd" d="M31.106 19.3627C31.0135 19.3697 30.5353 19.3982 29.4686 19.3982C28.6202 19.3982 28.0179 19.3727 27.8065 19.3627C24.5278 19.2185 22.0806 18.6478 22.0806 17.9646C22.0806 17.2813 24.5278 16.7114 27.8065 16.5649V18.7944C28.0209 18.8098 28.6349 18.846 29.4833 18.846C30.5014 18.846 31.0112 18.8036 31.103 18.7951V16.5664C34.3747 16.7121 36.8166 17.2828 36.8166 17.9646C36.8166 18.6463 34.3755 19.217 31.103 19.3619L31.106 19.3627ZM31.106 16.3358V14.3408H35.672V11.2984H23.2406V14.3408H27.8058V16.335C24.0951 16.5055 21.3047 17.2404 21.3047 18.1211C21.3047 19.0018 24.0951 19.736 27.8058 19.9072V26.3003H31.1053V19.9049C34.8074 19.7344 37.5932 19.0003 37.5932 18.1203C37.5932 17.2404 34.8097 16.5062 31.1053 16.335L31.106 16.3358Z" fill="white"/>
</svg>
