<svg width="34" height="22" viewBox="0 0 34 22" fill="none" xmlns="http://www.w3.org/2000/svg">
<path d="M23.0317 7.22507C22.6264 7.06427 21.9835 6.88672 21.1886 6.88672C19.1593 6.88672 17.7302 7.96886 17.7215 9.51599C17.7046 10.6575 18.7446 11.2915 19.5225 11.6721C20.3175 12.061 20.5877 12.3148 20.5877 12.6615C20.5797 13.1939 19.9453 13.4393 19.3537 13.4393C18.5332 13.4393 18.0936 13.3128 17.4256 13.0166L17.155 12.8896L16.8674 14.6736C17.3494 14.8932 18.2374 15.088 19.1593 15.0966C21.3155 15.0966 22.7192 14.0312 22.7358 12.3825C22.744 11.4778 22.1949 10.7846 21.0109 10.2181C20.2922 9.85445 19.852 9.60926 19.852 9.2372C19.8605 8.89896 20.2243 8.55252 21.0357 8.55252C21.7037 8.53555 22.1945 8.69613 22.5664 8.85682L22.7522 8.94121L23.0317 7.22507Z" fill="#3362AB"/>
<path d="M15.5824 14.9781H13.5274L14.8127 7.03078H16.8676L15.5824 14.9781Z" fill="#3362AB"/>
<path fill-rule="evenodd" clip-rule="evenodd" d="M28.2994 7.03078H26.71C26.2198 7.03078 25.8474 7.17439 25.6359 7.69018L22.5836 14.978H24.7397C24.7397 14.978 25.0947 13.9971 25.171 13.7859H27.8094C27.8684 14.0649 28.0546 14.978 28.0546 14.978H29.9573L28.2994 7.03078ZM25.7629 12.1627C25.9321 11.7061 26.5833 9.93907 26.5833 9.93907C26.5799 9.94587 26.6064 9.87245 26.6459 9.76298L26.6463 9.76164L26.6467 9.76076C26.7056 9.59724 26.7932 9.35453 26.8537 9.1782L26.9973 9.86299C26.9973 9.86299 27.3864 11.7653 27.4709 12.1627H25.7629Z" fill="#3362AB"/>
<path d="M11.8111 7.03078L9.7986 12.4501L9.57869 11.351L9.57849 11.3503L8.85996 7.69883C8.74164 7.19125 8.378 7.04752 7.92986 7.03078H4.62367L4.58984 7.19136C5.39621 7.39756 6.11744 7.6947 6.74938 8.06416L8.58094 14.9697H10.754L13.984 7.03078H11.8111Z" fill="#3362AB"/>
</svg>
