<svg width="16" height="17" viewBox="0 0 16 17" fill="none" xmlns="http://www.w3.org/2000/svg">
<g clip-path="url(#clip0_1152_13416)">
<path d="M13.7151 9.0731V6.78739C13.7151 6.48428 13.5947 6.19359 13.3804 5.97927C13.1661 5.76494 12.8754 5.64453 12.5723 5.64453H1.71512C1.41202 5.64453 1.12133 5.76494 0.907001 5.97927C0.692673 6.19359 0.572266 6.48428 0.572266 6.78739V14.7874C0.572266 15.0905 0.692673 15.3812 0.907001 15.5955C1.12133 15.8098 1.41202 15.9302 1.71512 15.9302H12.5723C12.8754 15.9302 13.1661 15.8098 13.3804 15.5955C13.5947 15.3812 13.7151 15.0905 13.7151 14.7874V11.9302" stroke="#000E46" stroke-linecap="round" stroke-linejoin="round"/>
<path d="M4.38867 2.78663L10.8687 1.09521C10.9415 1.07469 11.0177 1.06914 11.0927 1.07889C11.1677 1.08864 11.24 1.11349 11.3052 1.15194C11.3703 1.19039 11.427 1.24164 11.4718 1.30261C11.5166 1.36357 11.5486 1.43297 11.5658 1.50663L11.8858 2.78663" stroke="#000E46" stroke-linecap="round" stroke-linejoin="round"/>
<path d="M14.8583 9.07422H12.0011C11.6855 9.07422 11.4297 9.33006 11.4297 9.64565V11.3599C11.4297 11.6755 11.6855 11.9314 12.0011 11.9314H14.8583C15.1739 11.9314 15.4297 11.6755 15.4297 11.3599V9.64565C15.4297 9.33006 15.1739 9.07422 14.8583 9.07422Z" stroke="#000E46" stroke-linecap="round" stroke-linejoin="round"/>
</g>
<defs>
<clipPath id="clip0_1152_13416">
<rect width="16" height="16" fill="white" transform="translate(0 0.5)"/>
</clipPath>
</defs>
</svg>
