<svg width="19" height="19" viewBox="0 0 19 19" fill="none" xmlns="http://www.w3.org/2000/svg">
<g clip-path="url(#clip0_1236_11743)">
<path d="M9.47893 0.496094C11.8282 0.497265 14.0333 1.41176 15.6914 3.07175C17.3495 4.73167 18.2621 6.93837 18.2612 9.28466C18.2593 14.0786 14.3976 17.9879 9.62403 18.0656L9.47913 18.0668H9.47548C8.02826 18.0663 6.60583 17.7089 5.33802 17.0302L5.27877 16.9981L0.623047 18.2192L1.86895 13.6681C1.10052 12.3365 0.696149 10.8256 0.696769 9.27763C0.698698 4.43561 4.63842 0.496094 9.47893 0.496094ZM9.48196 1.97949C5.4557 1.97949 2.18113 5.25379 2.17955 9.27839C2.179 10.6365 2.55326 11.96 3.26257 13.11L3.29551 13.163L3.46913 13.4392L2.7317 16.1327L5.49435 15.4081L5.76092 15.5661C6.86379 16.2206 8.12554 16.572 9.41375 16.5834L9.4761 16.5836H9.47913C13.5023 16.5836 16.7768 13.3091 16.7784 9.28425C16.7791 7.33385 16.0207 5.49982 14.6425 4.12012C13.2643 2.74048 11.4316 1.98011 9.48196 1.97942M6.36979 5.22202C6.51599 5.22202 6.66261 5.2234 6.79035 5.22995C6.92511 5.23656 7.10597 5.17875 7.28401 5.60655C7.35236 5.77053 7.45626 6.02387 7.56264 6.28266L7.58544 6.33812C7.75666 6.75462 7.9278 7.16987 7.96074 7.23581C8.01551 7.34556 8.05203 7.47385 7.97892 7.6202C7.90589 7.76674 7.86917 7.85817 7.75955 7.98646C7.64979 8.11448 7.52915 8.2726 7.43042 8.37085C7.42503 8.37619 7.41966 8.38154 7.4143 8.3869L7.39831 8.40323C7.30048 8.50445 7.21862 8.62047 7.33424 8.81849C7.46218 9.03828 7.90252 9.75703 8.55485 10.3388C9.39301 11.0864 10.1001 11.3181 10.3196 11.428C10.5389 11.5379 10.667 11.5195 10.795 11.3729C10.9231 11.2266 11.3435 10.7323 11.4898 10.5126C11.6361 10.2929 11.7824 10.3297 11.9835 10.4028C12.0791 10.4376 12.3731 10.5758 12.6789 10.7231L12.774 10.769C13.0801 10.9172 13.3786 11.0645 13.4829 11.1167C13.7024 11.2266 13.8487 11.2815 13.9035 11.3729C13.9583 11.4646 13.9583 11.9038 13.7755 12.4164C13.5927 12.929 12.7159 13.3968 12.2944 13.4599C11.9163 13.5163 11.4379 13.5399 10.9122 13.373C10.5936 13.2717 10.1848 13.1367 9.66123 12.9107C7.46004 11.9603 6.02233 9.74367 5.91271 9.59732L5.90527 9.5874C5.77153 9.40868 5.01661 8.38546 5.01661 7.32724C5.01661 6.24724 5.58358 5.71637 5.78463 5.49665C5.98581 5.27714 6.22351 5.22202 6.36979 5.22202Z" fill="#F5F7FF"/>
</g>
<defs>
<clipPath id="clip0_1236_11743">
<rect width="17.6382" height="17.776" fill="white" transform="translate(0.621094 0.496094)"/>
</clipPath>
</defs>
</svg>
